  0
SECTION
  2
HEADER
  9
$ACADVER
  1
AC1009
  9
$ACADMAINTVER
 70
   0
  9
$DWGCODEPAGE
  3
ANSI_932
  9
$INSBASE
 10
0.0
 20
0.0
 30
0.0
  9
$EXTMIN
 10
-2.540000
 20
-3.592500
 30
0.0
  9
$EXTMAX
 10
3.275000
 20
2.857500
 30
0.0
  9
$LIMMIN
 10
0.0
 20
0.0
  9
$LIMMAX
 10
12.0
 20
9.0
  9
$ORTHOMODE
 70
	0
  9
$REGENMODE
 70
	1
  9
$FILLMODE
 70
	1
  9
$QTEXTMODE
 70
	0
  9
$MIRRTEXT
 70
	1
  9
$DRAGMODE
 70
	2
  9
$LTSCALE
 40
1.0
  9
$OSMODE
 70
	0
  9
$ATTMODE
 70
	1
  9
$TEXTSIZE
 40
0.2
  9
$TRACEWID
 40
0.05
  9
$TEXTSTYLE
  7
STANDARD
  9
$CLAYER
  8
0
  9
$CELTYPE
  6
BYLAYER
  9
$CECOLOR
 62
	256
  9
$CELTSCALE
 40
1.0
  9
$DELOBJ
 70
	1
  9
$DISPSILH
 70
	0
  9
$LUNITS
 70
	2
  9
$LUPREC
 70
	6
  9
$SKETCHINC
 40
0.1
  9
$FILLETRAD
 40
0.5
  9
$AUNITS
 70
	0
  9
$AUPREC
 70
	6
  9
$MENU
  1
acad
  9
$ELEVATION
 40
0.0
  9
$PELEVATION
 40
0.0
  9
$THICKNESS
 40
0.0
  9
$LIMCHECK
 70
	0
  9
$BLIPMODE
 70
	0
  9
$CHAMFERA
 40
0.5
  9
$CHAMFERB
 40
0.5
  9
$CHAMFERC
 40
1.0
  9
$CHAMFERD
 40
0.0
  9
$SKPOLY
 70
	0
  9
$TDCREATE
 40
0.0
  9
$TDUPDATE
 40
0.0
  9
$TDINDWG
 40
0.0
  9
$TDUSRTIMER
 40
0.0
  9
$USRTIMER
 70
	0
  9
$ANGBASE
 50
0.0
  9
$ANGDIR
 70
	0
  9
$PDMODE
 70
	0
  9
$PDSIZE
 40
0.0
  9
$PLINEWID
 40
0.0
  9
$COORDS
 70
	1
  9
$SPLFRAME
 70
	0
  9
$SPLINETYPE
 70
	6
  9
$SPLINESEGS
 70
	8
  9
$ATTDIA
 70
	0
  9
$ATTREQ
 70
	1
  9
$HANDLING
 70
   1
  0
ENDSEC
  0
SECTION
  2
TABLES
  0
TABLE
  2
LAYER
 70
20
  0
LAYER
  2
0
 70
   0
 62
  7
  6
CONTINUOUS
  0
LAYER
  2
HOLE
 70
   0
 62
  230
  6
CONTINUOUS
  0
LAYER
  2
PT_FLOW
 70
   0
 62
  3
  6
CONTINUOUS
  0
LAYER
  2
PT
 70
   0
 62
  1
  6
CONTINUOUS
  0
LAYER
  2
PT_KeepOut-A
 70
   0
 62
  42
  6
CONTINUOUS
  0
LAYER
  2
H_Dim-GAIKEI
 70
   0
 62
  6
  6
CONTINUOUS
  0
LAYER
  2
NCD_Outline
 70
   0
 62
  7
  6
CONTINUOUS
  0
LAYER
  2
SR
 70
   0
 62
  6
  6
CONTINUOUS
  0
LAYER
  2
Place_KeepOut-A
 70
   0
 62
  1
  6
CONTINUOUS
  0
LAYER
  2
H_GAIKEI-A
 70
   0
 62
  4
  6
CONTINUOUS
  0
LAYER
  2
Dim-MM
 70
   0
 62
  176
  6
CONTINUOUS
  0
LAYER
  2
CompArea-A
 70
   0
 62
  183
  6
CONTINUOUS
  0
LAYER
  2
Dim-CM
 70
   0
 62
  176
  6
CONTINUOUS
  0
LAYER
  2
Dim-ETC
 70
   0
 62
  150
  6
CONTINUOUS
  0
LAYER
  2
SR_FLOW
 70
   0
 62
  4
  6
CONTINUOUS
  0
LAYER
  2
Via_KeepOut-A
 70
   0
 62
  41
  6
CONTINUOUS
  0
LAYER
  2
Marking-A
 70
   0
 62
  140
  6
CONTINUOUS
  0
LAYER
  2
Dim-SR
 70
   0
 62
  224
  6
CONTINUOUS
  0
LAYER
  2
Dim-PT
 70
   0
 62
  230
  6
CONTINUOUS
  0
LAYER
  2
MM
 70
   0
 62
  221
  6
CONTINUOUS
  0
LAYER
  2
CM-A
 70
   0
 62
  224
  6
CONTINUOUS
  0
ENDTAB
  0
TABLE
  2
LTYPE
 70
1
  0
ENDTAB
  0
TABLE
  2
STYLE
 70
1
  0
STYLE
  2
STANDARD
 70
0
 40
0.0
 41
1.0
 50
0.0
 71
0
 42
1.0
  3
txt
  4
EXTFONT
  0
ENDTAB
  0
ENDSEC
  0
SECTION
  2
BLOCKS
  0
ENDSEC
  0
SECTION
  2
ENTITIES
  0
LINE
  8
CompArea-A
 10
-1.350000
 20
-1.500000
 30
0.0
 11
-1.350000
 21
-1.000000
 31
0.0
  0
LINE
  8
CompArea-A
 10
-1.350000
 20
-1.000000
 30
0.0
 11
-1.550000
 21
-1.000000
 31
0.0
  0
LINE
  8
CompArea-A
 10
-1.550000
 20
-1.000000
 30
0.0
 11
-1.550000
 21
1.000000
 31
0.0
  0
LINE
  8
CompArea-A
 10
-1.550000
 20
1.000000
 30
0.0
 11
-0.400000
 21
1.000000
 31
0.0
  0
LINE
  8
CompArea-A
 10
-0.400000
 20
1.000000
 30
0.0
 11
-0.400000
 21
1.500000
 31
0.0
  0
LINE
  8
CompArea-A
 10
-0.400000
 20
1.500000
 30
0.0
 11
0.400000
 21
1.500000
 31
0.0
  0
LINE
  8
CompArea-A
 10
0.400000
 20
1.500000
 30
0.0
 11
0.400000
 21
1.000000
 31
0.0
  0
LINE
  8
CompArea-A
 10
0.400000
 20
1.000000
 30
0.0
 11
1.550000
 21
1.000000
 31
0.0
  0
LINE
  8
CompArea-A
 10
1.550000
 20
1.000000
 30
0.0
 11
1.550000
 21
-1.000000
 31
0.0
  0
LINE
  8
CompArea-A
 10
1.550000
 20
-1.000000
 30
0.0
 11
1.350000
 21
-1.000000
 31
0.0
  0
LINE
  8
CompArea-A
 10
1.350000
 20
-1.000000
 30
0.0
 11
1.350000
 21
-1.500000
 31
0.0
  0
LINE
  8
CompArea-A
 10
1.350000
 20
-1.500000
 30
0.0
 11
0.550000
 21
-1.500000
 31
0.0
  0
LINE
  8
CompArea-A
 10
0.550000
 20
-1.500000
 30
0.0
 11
0.550000
 21
-1.000000
 31
0.0
  0
LINE
  8
CompArea-A
 10
0.550000
 20
-1.000000
 30
0.0
 11
-0.550000
 21
-1.000000
 31
0.0
  0
LINE
  8
CompArea-A
 10
-0.550000
 20
-1.000000
 30
0.0
 11
-0.550000
 21
-1.500000
 31
0.0
  0
LINE
  8
CompArea-A
 10
-0.550000
 20
-1.500000
 30
0.0
 11
-1.350000
 21
-1.500000
 31
0.0
  0
LINE
  8
Dim-CM
 10
-0.375000
 20
2.028700
 30
0.0
 11
-0.363430
 21
2.056480
 31
0.0
  0
LINE
  8
Dim-CM
 10
-0.363430
 20
2.056480
 30
0.0
 11
-0.340280
 21
2.084260
 31
0.0
  0
LINE
  8
Dim-CM
 10
-0.340280
 20
2.084260
 30
0.0
 11
-0.314810
 21
2.098150
 31
0.0
  0
LINE
  8
Dim-CM
 10
-0.314810
 20
2.098150
 30
0.0
 11
-0.243060
 21
2.098150
 31
0.0
  0
LINE
  8
Dim-CM
 10
-0.243060
 20
2.098150
 30
0.0
 11
-0.219910
 21
2.084260
 31
0.0
  0
LINE
  8
Dim-CM
 10
-0.219910
 20
2.084260
 30
0.0
 11
-0.194440
 21
2.056480
 31
0.0
  0
LINE
  8
Dim-CM
 10
-0.194440
 20
2.056480
 30
0.0
 11
-0.182870
 21
2.028700
 31
0.0
  0
LINE
  8
Dim-CM
 10
-0.182870
 20
2.028700
 30
0.0
 11
-0.182870
 21
1.973150
 31
0.0
  0
LINE
  8
Dim-CM
 10
-0.182870
 20
1.973150
 30
0.0
 11
-0.194440
 21
1.945370
 31
0.0
  0
LINE
  8
Dim-CM
 10
-0.194440
 20
1.945370
 30
0.0
 11
-0.375000
 21
1.741670
 31
0.0
  0
LINE
  8
Dim-CM
 10
-0.375000
 20
1.741670
 30
0.0
 11
-0.182870
 21
1.741670
 31
0.0
  0
LINE
  8
Dim-CM
 10
-0.074070
 20
1.750930
 30
0.0
 11
-0.078700
 21
1.741670
 31
0.0
  0
LINE
  8
Dim-CM
 10
-0.078700
 20
1.741670
 30
0.0
 11
-0.090280
 21
1.741670
 31
0.0
  0
LINE
  8
Dim-CM
 10
-0.090280
 20
1.741670
 30
0.0
 11
-0.094910
 21
1.750930
 31
0.0
  0
LINE
  8
Dim-CM
 10
-0.094910
 20
1.750930
 30
0.0
 11
-0.094910
 21
1.774070
 31
0.0
  0
LINE
  8
Dim-CM
 10
-0.094910
 20
1.774070
 30
0.0
 11
-0.090280
 21
1.783330
 31
0.0
  0
LINE
  8
Dim-CM
 10
-0.090280
 20
1.783330
 30
0.0
 11
-0.078700
 21
1.783330
 31
0.0
  0
LINE
  8
Dim-CM
 10
-0.078700
 20
1.783330
 30
0.0
 11
-0.074070
 21
1.774070
 31
0.0
  0
LINE
  8
Dim-CM
 10
-0.074070
 20
1.774070
 30
0.0
 11
-0.074070
 21
1.750930
 31
0.0
  0
LINE
  8
Dim-CM
 10
0.328700
 20
1.945370
 30
0.0
 11
0.305560
 21
1.922220
 31
0.0
  0
LINE
  8
Dim-CM
 10
0.305560
 20
1.922220
 30
0.0
 11
0.259260
 21
1.908330
 31
0.0
  0
LINE
  8
Dim-CM
 10
0.259260
 20
1.908330
 30
0.0
 11
0.215280
 21
1.908330
 31
0.0
  0
LINE
  8
Dim-CM
 10
0.215280
 20
1.908330
 30
0.0
 11
0.168980
 21
1.922220
 31
0.0
  0
LINE
  8
Dim-CM
 10
0.168980
 20
1.922220
 30
0.0
 11
0.148150
 21
1.931480
 31
0.0
  0
LINE
  8
Dim-CM
 10
0.148150
 20
1.931480
 30
0.0
 11
0.136570
 21
1.959260
 31
0.0
  0
LINE
  8
Dim-CM
 10
0.136570
 20
1.959260
 30
0.0
 11
0.136570
 21
2.014810
 31
0.0
  0
LINE
  8
Dim-CM
 10
0.136570
 20
2.014810
 30
0.0
 11
0.148150
 21
2.056480
 31
0.0
  0
LINE
  8
Dim-CM
 10
0.148150
 20
2.056480
 30
0.0
 11
0.180560
 21
2.084260
 31
0.0
  0
LINE
  8
Dim-CM
 10
0.180560
 20
2.084260
 30
0.0
 11
0.215280
 21
2.098150
 31
0.0
  0
LINE
  8
Dim-CM
 10
0.215280
 20
2.098150
 30
0.0
 11
0.259260
 21
2.098150
 31
0.0
  0
LINE
  8
Dim-CM
 10
0.259260
 20
2.098150
 30
0.0
 11
0.296300
 21
2.084260
 31
0.0
  0
LINE
  8
Dim-CM
 10
0.296300
 20
2.084260
 30
0.0
 11
0.317130
 21
2.056480
 31
0.0
  0
LINE
  8
Dim-CM
 10
0.317130
 20
2.056480
 30
0.0
 11
0.328700
 21
2.014810
 31
0.0
  0
LINE
  8
Dim-CM
 10
0.328700
 20
2.014810
 30
0.0
 11
0.328700
 21
1.852780
 31
0.0
  0
LINE
  8
Dim-CM
 10
0.328700
 20
1.852780
 30
0.0
 11
0.317130
 21
1.811110
 31
0.0
  0
LINE
  8
Dim-CM
 10
0.317130
 20
1.811110
 30
0.0
 11
0.305560
 21
1.783330
 31
0.0
  0
LINE
  8
Dim-CM
 10
0.305560
 20
1.783330
 30
0.0
 11
0.282410
 21
1.755560
 31
0.0
  0
LINE
  8
Dim-CM
 10
0.282410
 20
1.755560
 30
0.0
 11
0.250000
 21
1.741670
 31
0.0
  0
LINE
  8
Dim-CM
 10
0.250000
 20
1.741670
 30
0.0
 11
0.215280
 21
1.741670
 31
0.0
  0
LINE
  8
Dim-CM
 10
0.215280
 20
1.741670
 30
0.0
 11
0.180560
 21
1.755560
 31
0.0
  0
LINE
  8
Dim-CM
 10
0.180560
 20
1.755560
 30
0.0
 11
0.148150
 21
1.783330
 31
0.0
  0
LINE
  8
Dim-CM
 10
-1.450000
 20
1.000000
 30
0.0
 11
-1.450000
 21
1.800000
 31
0.0
  0
LINE
  8
Dim-CM
 10
1.450000
 20
1.000000
 30
0.0
 11
1.450000
 21
1.800000
 31
0.0
  0
LINE
  8
Dim-CM
 10
-1.353410
 20
1.725880
 30
0.0
 11
-1.450000
 21
1.700000
 31
0.0
  0
LINE
  8
Dim-CM
 10
-1.450000
 20
1.700000
 30
0.0
 11
-1.353410
 21
1.674120
 31
0.0
  0
LINE
  8
Dim-CM
 10
1.353410
 20
1.674120
 30
0.0
 11
1.450000
 21
1.700000
 31
0.0
  0
LINE
  8
Dim-CM
 10
1.450000
 20
1.700000
 30
0.0
 11
1.353410
 21
1.725880
 31
0.0
  0
LINE
  8
Dim-CM
 10
-1.450000
 20
1.700000
 30
0.0
 11
1.450000
 21
1.700000
 31
0.0
  0
LINE
  8
Dim-CM
 10
2.103700
 20
-0.344910
 30
0.0
 11
2.001850
 21
-0.300930
 31
0.0
  0
LINE
  8
Dim-CM
 10
2.001850
 20
-0.300930
 30
0.0
 11
2.358330
 21
-0.300930
 31
0.0
  0
LINE
  8
Dim-CM
 10
2.349070
 20
-0.074070
 30
0.0
 11
2.358330
 21
-0.078700
 31
0.0
  0
LINE
  8
Dim-CM
 10
2.358330
 20
-0.078700
 30
0.0
 11
2.358330
 21
-0.090280
 31
0.0
  0
LINE
  8
Dim-CM
 10
2.358330
 20
-0.090280
 30
0.0
 11
2.349070
 21
-0.094910
 31
0.0
  0
LINE
  8
Dim-CM
 10
2.349070
 20
-0.094910
 30
0.0
 11
2.325930
 21
-0.094910
 31
0.0
  0
LINE
  8
Dim-CM
 10
2.325930
 20
-0.094910
 30
0.0
 11
2.316670
 21
-0.090280
 31
0.0
  0
LINE
  8
Dim-CM
 10
2.316670
 20
-0.090280
 30
0.0
 11
2.316670
 21
-0.078700
 31
0.0
  0
LINE
  8
Dim-CM
 10
2.316670
 20
-0.078700
 30
0.0
 11
2.325930
 21
-0.074070
 31
0.0
  0
LINE
  8
Dim-CM
 10
2.325930
 20
-0.074070
 30
0.0
 11
2.349070
 21
-0.074070
 31
0.0
  0
LINE
  8
Dim-CM
 10
2.168520
 20
0.250000
 30
0.0
 11
2.154630
 21
0.296300
 31
0.0
  0
LINE
  8
Dim-CM
 10
2.154630
 20
0.296300
 30
0.0
 11
2.140740
 21
0.305560
 31
0.0
  0
LINE
  8
Dim-CM
 10
2.140740
 20
0.305560
 30
0.0
 11
2.112960
 21
0.317130
 31
0.0
  0
LINE
  8
Dim-CM
 10
2.112960
 20
0.317130
 30
0.0
 11
2.071300
 21
0.317130
 31
0.0
  0
LINE
  8
Dim-CM
 10
2.071300
 20
0.317130
 30
0.0
 11
2.043520
 21
0.305560
 31
0.0
  0
LINE
  8
Dim-CM
 10
2.043520
 20
0.305560
 30
0.0
 11
2.015740
 21
0.282410
 31
0.0
  0
LINE
  8
Dim-CM
 10
2.015740
 20
0.282410
 30
0.0
 11
2.001850
 21
0.250000
 31
0.0
  0
LINE
  8
Dim-CM
 10
2.001850
 20
0.250000
 30
0.0
 11
2.001850
 21
0.201390
 31
0.0
  0
LINE
  8
Dim-CM
 10
2.001850
 20
0.201390
 30
0.0
 11
2.015740
 21
0.168980
 31
0.0
  0
LINE
  8
Dim-CM
 10
2.015740
 20
0.168980
 30
0.0
 11
2.043520
 21
0.148150
 31
0.0
  0
LINE
  8
Dim-CM
 10
2.043520
 20
0.148150
 30
0.0
 11
2.071300
 21
0.136570
 31
0.0
  0
LINE
  8
Dim-CM
 10
2.071300
 20
0.136570
 30
0.0
 11
2.112960
 21
0.136570
 31
0.0
  0
LINE
  8
Dim-CM
 10
2.112960
 20
0.136570
 30
0.0
 11
2.140740
 21
0.148150
 31
0.0
  0
LINE
  8
Dim-CM
 10
2.140740
 20
0.148150
 30
0.0
 11
2.154630
 21
0.157410
 31
0.0
  0
LINE
  8
Dim-CM
 10
2.154630
 20
0.157410
 30
0.0
 11
2.168520
 21
0.192130
 31
0.0
  0
LINE
  8
Dim-CM
 10
2.168520
 20
0.192130
 30
0.0
 11
2.168520
 21
0.259260
 31
0.0
  0
LINE
  8
Dim-CM
 10
2.168520
 20
0.259260
 30
0.0
 11
2.177780
 21
0.282410
 31
0.0
  0
LINE
  8
Dim-CM
 10
2.177780
 20
0.282410
 30
0.0
 11
2.205560
 21
0.317130
 31
0.0
  0
LINE
  8
Dim-CM
 10
2.205560
 20
0.317130
 30
0.0
 11
2.233330
 21
0.328700
 31
0.0
  0
LINE
  8
Dim-CM
 10
2.233330
 20
0.328700
 30
0.0
 11
2.275000
 21
0.328700
 31
0.0
  0
LINE
  8
Dim-CM
 10
2.275000
 20
0.328700
 30
0.0
 11
2.316670
 21
0.317130
 31
0.0
  0
LINE
  8
Dim-CM
 10
2.316670
 20
0.317130
 30
0.0
 11
2.344440
 21
0.282410
 31
0.0
  0
LINE
  8
Dim-CM
 10
2.344440
 20
0.282410
 30
0.0
 11
2.358330
 21
0.250000
 31
0.0
  0
LINE
  8
Dim-CM
 10
2.358330
 20
0.250000
 30
0.0
 11
2.358330
 21
0.201390
 31
0.0
  0
LINE
  8
Dim-CM
 10
2.358330
 20
0.201390
 30
0.0
 11
2.344440
 21
0.168980
 31
0.0
  0
LINE
  8
Dim-CM
 10
2.344440
 20
0.168980
 30
0.0
 11
2.316670
 21
0.136570
 31
0.0
  0
LINE
  8
Dim-CM
 10
2.316670
 20
0.136570
 30
0.0
 11
2.275000
 21
0.125000
 31
0.0
  0
LINE
  8
Dim-CM
 10
2.275000
 20
0.125000
 30
0.0
 11
2.233330
 21
0.125000
 31
0.0
  0
LINE
  8
Dim-CM
 10
2.233330
 20
0.125000
 30
0.0
 11
2.205560
 21
0.136570
 31
0.0
  0
LINE
  8
Dim-CM
 10
2.205560
 20
0.136570
 30
0.0
 11
2.177780
 21
0.168980
 31
0.0
  0
LINE
  8
Dim-CM
 10
2.177780
 20
0.168980
 30
0.0
 11
2.168520
 21
0.192130
 31
0.0
  0
LINE
  8
Dim-CM
 10
1.550000
 20
0.900000
 30
0.0
 11
2.500000
 21
0.900000
 31
0.0
  0
LINE
  8
Dim-CM
 10
1.550000
 20
-0.900000
 30
0.0
 11
2.500000
 21
-0.900000
 31
0.0
  0
LINE
  8
Dim-CM
 10
2.425880
 20
0.803410
 30
0.0
 11
2.400000
 21
0.900000
 31
0.0
  0
LINE
  8
Dim-CM
 10
2.400000
 20
0.900000
 30
0.0
 11
2.374120
 21
0.803410
 31
0.0
  0
LINE
  8
Dim-CM
 10
2.374120
 20
-0.803410
 30
0.0
 11
2.400000
 21
-0.900000
 31
0.0
  0
LINE
  8
Dim-CM
 10
2.400000
 20
-0.900000
 30
0.0
 11
2.425880
 21
-0.803410
 31
0.0
  0
LINE
  8
Dim-CM
 10
2.400000
 20
0.900000
 30
0.0
 11
2.400000
 21
-0.900000
 31
0.0
  0
LINE
  8
Dim-PT
 10
-0.317500
 20
0.000000
 30
0.0
 11
0.317500
 21
0.000000
 31
0.0
  0
LINE
  8
Dim-PT
 10
0.000000
 20
0.317500
 30
0.0
 11
0.000000
 21
-0.317500
 31
0.0
  0
LINE
  8
Dim-PT
 10
-0.349540
 20
2.495650
 30
0.0
 11
-0.349540
 21
2.389170
 31
0.0
  0
LINE
  8
Dim-PT
 10
-0.349540
 20
2.389170
 30
0.0
 11
-0.340280
 21
2.333610
 31
0.0
  0
LINE
  8
Dim-PT
 10
-0.340280
 20
2.333610
 30
0.0
 11
-0.331020
 21
2.305830
 31
0.0
  0
LINE
  8
Dim-PT
 10
-0.331020
 20
2.305830
 30
0.0
 11
-0.310190
 21
2.278060
 31
0.0
  0
LINE
  8
Dim-PT
 10
-0.310190
 20
2.278060
 30
0.0
 11
-0.291670
 21
2.264170
 31
0.0
  0
LINE
  8
Dim-PT
 10
-0.291670
 20
2.264170
 30
0.0
 11
-0.254630
 21
2.264170
 31
0.0
  0
LINE
  8
Dim-PT
 10
-0.254630
 20
2.264170
 30
0.0
 11
-0.238430
 21
2.278060
 31
0.0
  0
LINE
  8
Dim-PT
 10
-0.238430
 20
2.278060
 30
0.0
 11
-0.217590
 21
2.305830
 31
0.0
  0
LINE
  8
Dim-PT
 10
-0.217590
 20
2.305830
 30
0.0
 11
-0.208330
 21
2.333610
 31
0.0
  0
LINE
  8
Dim-PT
 10
-0.208330
 20
2.333610
 30
0.0
 11
-0.199070
 21
2.389170
 31
0.0
  0
LINE
  8
Dim-PT
 10
-0.199070
 20
2.389170
 30
0.0
 11
-0.199070
 21
2.495650
 31
0.0
  0
LINE
  8
Dim-PT
 10
-0.199070
 20
2.495650
 30
0.0
 11
-0.208330
 21
2.551200
 31
0.0
  0
LINE
  8
Dim-PT
 10
-0.208330
 20
2.551200
 30
0.0
 11
-0.217590
 21
2.578980
 31
0.0
  0
LINE
  8
Dim-PT
 10
-0.217590
 20
2.578980
 30
0.0
 11
-0.238430
 21
2.606760
 31
0.0
  0
LINE
  8
Dim-PT
 10
-0.238430
 20
2.606760
 30
0.0
 11
-0.254630
 21
2.620650
 31
0.0
  0
LINE
  8
Dim-PT
 10
-0.254630
 20
2.620650
 30
0.0
 11
-0.291670
 21
2.620650
 31
0.0
  0
LINE
  8
Dim-PT
 10
-0.291670
 20
2.620650
 30
0.0
 11
-0.310190
 21
2.606760
 31
0.0
  0
LINE
  8
Dim-PT
 10
-0.310190
 20
2.606760
 30
0.0
 11
-0.331020
 21
2.578980
 31
0.0
  0
LINE
  8
Dim-PT
 10
-0.331020
 20
2.578980
 30
0.0
 11
-0.340280
 21
2.551200
 31
0.0
  0
LINE
  8
Dim-PT
 10
-0.340280
 20
2.551200
 30
0.0
 11
-0.349540
 21
2.495650
 31
0.0
  0
LINE
  8
Dim-PT
 10
-0.074070
 20
2.273430
 30
0.0
 11
-0.078700
 21
2.264170
 31
0.0
  0
LINE
  8
Dim-PT
 10
-0.078700
 20
2.264170
 30
0.0
 11
-0.090280
 21
2.264170
 31
0.0
  0
LINE
  8
Dim-PT
 10
-0.090280
 20
2.264170
 30
0.0
 11
-0.094910
 21
2.273430
 31
0.0
  0
LINE
  8
Dim-PT
 10
-0.094910
 20
2.273430
 30
0.0
 11
-0.094910
 21
2.296570
 31
0.0
  0
LINE
  8
Dim-PT
 10
-0.094910
 20
2.296570
 30
0.0
 11
-0.090280
 21
2.305830
 31
0.0
  0
LINE
  8
Dim-PT
 10
-0.090280
 20
2.305830
 30
0.0
 11
-0.078700
 21
2.305830
 31
0.0
  0
LINE
  8
Dim-PT
 10
-0.078700
 20
2.305830
 30
0.0
 11
-0.074070
 21
2.296570
 31
0.0
  0
LINE
  8
Dim-PT
 10
-0.074070
 20
2.296570
 30
0.0
 11
-0.074070
 21
2.273430
 31
0.0
  0
LINE
  8
Dim-PT
 10
0.250000
 20
2.453980
 30
0.0
 11
0.296300
 21
2.467870
 31
0.0
  0
LINE
  8
Dim-PT
 10
0.296300
 20
2.467870
 30
0.0
 11
0.305560
 21
2.481760
 31
0.0
  0
LINE
  8
Dim-PT
 10
0.305560
 20
2.481760
 30
0.0
 11
0.317130
 21
2.509540
 31
0.0
  0
LINE
  8
Dim-PT
 10
0.317130
 20
2.509540
 30
0.0
 11
0.317130
 21
2.551200
 31
0.0
  0
LINE
  8
Dim-PT
 10
0.317130
 20
2.551200
 30
0.0
 11
0.305560
 21
2.578980
 31
0.0
  0
LINE
  8
Dim-PT
 10
0.305560
 20
2.578980
 30
0.0
 11
0.282410
 21
2.606760
 31
0.0
  0
LINE
  8
Dim-PT
 10
0.282410
 20
2.606760
 30
0.0
 11
0.250000
 21
2.620650
 31
0.0
  0
LINE
  8
Dim-PT
 10
0.250000
 20
2.620650
 30
0.0
 11
0.201390
 21
2.620650
 31
0.0
  0
LINE
  8
Dim-PT
 10
0.201390
 20
2.620650
 30
0.0
 11
0.168980
 21
2.606760
 31
0.0
  0
LINE
  8
Dim-PT
 10
0.168980
 20
2.606760
 30
0.0
 11
0.148150
 21
2.578980
 31
0.0
  0
LINE
  8
Dim-PT
 10
0.148150
 20
2.578980
 30
0.0
 11
0.136570
 21
2.551200
 31
0.0
  0
LINE
  8
Dim-PT
 10
0.136570
 20
2.551200
 30
0.0
 11
0.136570
 21
2.509540
 31
0.0
  0
LINE
  8
Dim-PT
 10
0.136570
 20
2.509540
 30
0.0
 11
0.148150
 21
2.481760
 31
0.0
  0
LINE
  8
Dim-PT
 10
0.148150
 20
2.481760
 30
0.0
 11
0.157410
 21
2.467870
 31
0.0
  0
LINE
  8
Dim-PT
 10
0.157410
 20
2.467870
 30
0.0
 11
0.192130
 21
2.453980
 31
0.0
  0
LINE
  8
Dim-PT
 10
0.192130
 20
2.453980
 30
0.0
 11
0.259260
 21
2.453980
 31
0.0
  0
LINE
  8
Dim-PT
 10
0.259260
 20
2.453980
 30
0.0
 11
0.282410
 21
2.444720
 31
0.0
  0
LINE
  8
Dim-PT
 10
0.282410
 20
2.444720
 30
0.0
 11
0.317130
 21
2.416940
 31
0.0
  0
LINE
  8
Dim-PT
 10
0.317130
 20
2.416940
 30
0.0
 11
0.328700
 21
2.389170
 31
0.0
  0
LINE
  8
Dim-PT
 10
0.328700
 20
2.389170
 30
0.0
 11
0.328700
 21
2.347500
 31
0.0
  0
LINE
  8
Dim-PT
 10
0.328700
 20
2.347500
 30
0.0
 11
0.317130
 21
2.305830
 31
0.0
  0
LINE
  8
Dim-PT
 10
0.317130
 20
2.305830
 30
0.0
 11
0.282410
 21
2.278060
 31
0.0
  0
LINE
  8
Dim-PT
 10
0.282410
 20
2.278060
 30
0.0
 11
0.250000
 21
2.264170
 31
0.0
  0
LINE
  8
Dim-PT
 10
0.250000
 20
2.264170
 30
0.0
 11
0.201390
 21
2.264170
 31
0.0
  0
LINE
  8
Dim-PT
 10
0.201390
 20
2.264170
 30
0.0
 11
0.168980
 21
2.278060
 31
0.0
  0
LINE
  8
Dim-PT
 10
0.168980
 20
2.278060
 30
0.0
 11
0.136570
 21
2.305830
 31
0.0
  0
LINE
  8
Dim-PT
 10
0.136570
 20
2.305830
 30
0.0
 11
0.125000
 21
2.347500
 31
0.0
  0
LINE
  8
Dim-PT
 10
0.125000
 20
2.347500
 30
0.0
 11
0.125000
 21
2.389170
 31
0.0
  0
LINE
  8
Dim-PT
 10
0.125000
 20
2.389170
 30
0.0
 11
0.136570
 21
2.416940
 31
0.0
  0
LINE
  8
Dim-PT
 10
0.136570
 20
2.416940
 30
0.0
 11
0.168980
 21
2.444720
 31
0.0
  0
LINE
  8
Dim-PT
 10
0.168980
 20
2.444720
 30
0.0
 11
0.192130
 21
2.453980
 31
0.0
  0
LINE
  8
Dim-PT
 10
-0.400000
 20
1.600000
 30
0.0
 11
-0.400000
 21
2.322500
 31
0.0
  0
LINE
  8
Dim-PT
 10
0.400000
 20
1.600000
 30
0.0
 11
0.400000
 21
2.322500
 31
0.0
  0
LINE
  8
Dim-PT
 10
-0.303410
 20
2.248380
 30
0.0
 11
-0.400000
 21
2.222500
 31
0.0
  0
LINE
  8
Dim-PT
 10
-0.400000
 20
2.222500
 30
0.0
 11
-0.303410
 21
2.196620
 31
0.0
  0
LINE
  8
Dim-PT
 10
0.303410
 20
2.196620
 30
0.0
 11
0.400000
 21
2.222500
 31
0.0
  0
LINE
  8
Dim-PT
 10
0.400000
 20
2.222500
 30
0.0
 11
0.303410
 21
2.248380
 31
0.0
  0
LINE
  8
Dim-PT
 10
-0.400000
 20
2.222500
 30
0.0
 11
0.400000
 21
2.222500
 31
0.0
  0
LINE
  8
Dim-PT
 10
-2.201300
 20
1.435080
 30
0.0
 11
-2.303150
 21
1.479060
 31
0.0
  0
LINE
  8
Dim-PT
 10
-2.303150
 20
1.479060
 30
0.0
 11
-1.946670
 21
1.479060
 31
0.0
  0
LINE
  8
Dim-PT
 10
-1.955930
 20
1.705920
 30
0.0
 11
-1.946670
 21
1.701290
 31
0.0
  0
LINE
  8
Dim-PT
 10
-1.946670
 20
1.701290
 30
0.0
 11
-1.946670
 21
1.689710
 31
0.0
  0
LINE
  8
Dim-PT
 10
-1.946670
 20
1.689710
 30
0.0
 11
-1.955930
 21
1.685080
 31
0.0
  0
LINE
  8
Dim-PT
 10
-1.955930
 20
1.685080
 30
0.0
 11
-1.979070
 21
1.685080
 31
0.0
  0
LINE
  8
Dim-PT
 10
-1.979070
 20
1.685080
 30
0.0
 11
-1.988330
 21
1.689710
 31
0.0
  0
LINE
  8
Dim-PT
 10
-1.988330
 20
1.689710
 30
0.0
 11
-1.988330
 21
1.701290
 31
0.0
  0
LINE
  8
Dim-PT
 10
-1.988330
 20
1.701290
 30
0.0
 11
-1.979070
 21
1.705920
 31
0.0
  0
LINE
  8
Dim-PT
 10
-1.979070
 20
1.705920
 30
0.0
 11
-1.955930
 21
1.705920
 31
0.0
  0
LINE
  8
Dim-PT
 10
-2.178150
 20
1.930450
 30
0.0
 11
-2.071670
 21
1.930450
 31
0.0
  0
LINE
  8
Dim-PT
 10
-2.071670
 20
1.930450
 30
0.0
 11
-2.016110
 21
1.939710
 31
0.0
  0
LINE
  8
Dim-PT
 10
-2.016110
 20
1.939710
 30
0.0
 11
-1.988330
 21
1.948970
 31
0.0
  0
LINE
  8
Dim-PT
 10
-1.988330
 20
1.948970
 30
0.0
 11
-1.960560
 21
1.969800
 31
0.0
  0
LINE
  8
Dim-PT
 10
-1.960560
 20
1.969800
 30
0.0
 11
-1.946670
 21
1.988320
 31
0.0
  0
LINE
  8
Dim-PT
 10
-1.946670
 20
1.988320
 30
0.0
 11
-1.946670
 21
2.025360
 31
0.0
  0
LINE
  8
Dim-PT
 10
-1.946670
 20
2.025360
 30
0.0
 11
-1.960560
 21
2.041560
 31
0.0
  0
LINE
  8
Dim-PT
 10
-1.960560
 20
2.041560
 30
0.0
 11
-1.988330
 21
2.062400
 31
0.0
  0
LINE
  8
Dim-PT
 10
-1.988330
 20
2.062400
 30
0.0
 11
-2.016110
 21
2.071660
 31
0.0
  0
LINE
  8
Dim-PT
 10
-2.016110
 20
2.071660
 30
0.0
 11
-2.071670
 21
2.080920
 31
0.0
  0
LINE
  8
Dim-PT
 10
-2.071670
 20
2.080920
 30
0.0
 11
-2.178150
 21
2.080920
 31
0.0
  0
LINE
  8
Dim-PT
 10
-2.178150
 20
2.080920
 30
0.0
 11
-2.233700
 21
2.071660
 31
0.0
  0
LINE
  8
Dim-PT
 10
-2.233700
 20
2.071660
 30
0.0
 11
-2.261480
 21
2.062400
 31
0.0
  0
LINE
  8
Dim-PT
 10
-2.261480
 20
2.062400
 30
0.0
 11
-2.289260
 21
2.041560
 31
0.0
  0
LINE
  8
Dim-PT
 10
-2.289260
 20
2.041560
 30
0.0
 11
-2.303150
 21
2.025360
 31
0.0
  0
LINE
  8
Dim-PT
 10
-2.303150
 20
2.025360
 30
0.0
 11
-2.303150
 21
1.988320
 31
0.0
  0
LINE
  8
Dim-PT
 10
-2.303150
 20
1.988320
 30
0.0
 11
-2.289260
 21
1.969800
 31
0.0
  0
LINE
  8
Dim-PT
 10
-2.289260
 20
1.969800
 30
0.0
 11
-2.261480
 21
1.948970
 31
0.0
  0
LINE
  8
Dim-PT
 10
-2.261480
 20
1.948970
 30
0.0
 11
-2.233700
 21
1.939710
 31
0.0
  0
LINE
  8
Dim-PT
 10
-2.233700
 20
1.939710
 30
0.0
 11
-2.178150
 21
1.930450
 31
0.0
  0
LINE
  8
Dim-PT
 10
-2.303150
 20
2.335550
 30
0.0
 11
-2.303150
 21
2.166560
 31
0.0
  0
LINE
  8
Dim-PT
 10
-2.303150
 20
2.166560
 30
0.0
 11
-2.136480
 21
2.166560
 31
0.0
  0
LINE
  8
Dim-PT
 10
-2.136480
 20
2.166560
 30
0.0
 11
-2.164260
 21
2.215180
 31
0.0
  0
LINE
  8
Dim-PT
 10
-2.164260
 20
2.215180
 30
0.0
 11
-2.164260
 21
2.261470
 31
0.0
  0
LINE
  8
Dim-PT
 10
-2.164260
 20
2.261470
 30
0.0
 11
-2.150370
 21
2.298510
 31
0.0
  0
LINE
  8
Dim-PT
 10
-2.150370
 20
2.298510
 30
0.0
 11
-2.127220
 21
2.321660
 31
0.0
  0
LINE
  8
Dim-PT
 10
-2.127220
 20
2.321660
 30
0.0
 11
-2.085560
 21
2.347120
 31
0.0
  0
LINE
  8
Dim-PT
 10
-2.085560
 20
2.347120
 30
0.0
 11
-2.030000
 21
2.347120
 31
0.0
  0
LINE
  8
Dim-PT
 10
-2.030000
 20
2.347120
 30
0.0
 11
-1.988330
 21
2.321660
 31
0.0
  0
LINE
  8
Dim-PT
 10
-1.988330
 20
2.321660
 30
0.0
 11
-1.960560
 21
2.286930
 31
0.0
  0
LINE
  8
Dim-PT
 10
-1.960560
 20
2.286930
 30
0.0
 11
-1.946670
 21
2.249900
 31
0.0
  0
LINE
  8
Dim-PT
 10
-1.946670
 20
2.249900
 30
0.0
 11
-1.946670
 21
2.226750
 31
0.0
  0
LINE
  8
Dim-PT
 10
-1.946670
 20
2.226750
 30
0.0
 11
-1.974440
 21
2.178140
 31
0.0
  0
LINE
  8
Dim-PT
 10
-1.974440
 20
2.178140
 30
0.0
 11
-2.002220
 21
2.154990
 31
0.0
  0
LINE
  8
Dim-PT
 10
-0.417500
 20
0.000000
 30
0.0
 11
-2.005000
 21
0.000000
 31
0.0
  0
LINE
  8
Dim-PT
 10
-0.100000
 20
1.050000
 30
0.0
 11
-2.005000
 21
1.050000
 31
0.0
  0
LINE
  8
Dim-PT
 10
-1.879120
 20
-0.096590
 30
0.0
 11
-1.905000
 21
0.000000
 31
0.0
  0
LINE
  8
Dim-PT
 10
-1.905000
 20
0.000000
 30
0.0
 11
-1.930880
 21
-0.096590
 31
0.0
  0
LINE
  8
Dim-PT
 10
-1.930880
 20
1.146590
 30
0.0
 11
-1.905000
 21
1.050000
 31
0.0
  0
LINE
  8
Dim-PT
 10
-1.905000
 20
1.050000
 30
0.0
 11
-1.879120
 21
1.146590
 31
0.0
  0
LINE
  8
Dim-PT
 10
-1.905000
 20
-0.250000
 30
0.0
 11
-1.905000
 21
2.540000
 31
0.0
  0
LINE
  8
Dim-PT
 10
-2.201300
 20
-2.374920
 30
0.0
 11
-2.303150
 21
-2.330940
 31
0.0
  0
LINE
  8
Dim-PT
 10
-2.303150
 20
-2.330940
 30
0.0
 11
-1.946670
 21
-2.330940
 31
0.0
  0
LINE
  8
Dim-PT
 10
-1.955930
 20
-2.104080
 30
0.0
 11
-1.946670
 21
-2.108710
 31
0.0
  0
LINE
  8
Dim-PT
 10
-1.946670
 20
-2.108710
 30
0.0
 11
-1.946670
 21
-2.120290
 31
0.0
  0
LINE
  8
Dim-PT
 10
-1.946670
 20
-2.120290
 30
0.0
 11
-1.955930
 21
-2.124920
 31
0.0
  0
LINE
  8
Dim-PT
 10
-1.955930
 20
-2.124920
 30
0.0
 11
-1.979070
 21
-2.124920
 31
0.0
  0
LINE
  8
Dim-PT
 10
-1.979070
 20
-2.124920
 30
0.0
 11
-1.988330
 21
-2.120290
 31
0.0
  0
LINE
  8
Dim-PT
 10
-1.988330
 20
-2.120290
 30
0.0
 11
-1.988330
 21
-2.108710
 31
0.0
  0
LINE
  8
Dim-PT
 10
-1.988330
 20
-2.108710
 30
0.0
 11
-1.979070
 21
-2.104080
 31
0.0
  0
LINE
  8
Dim-PT
 10
-1.979070
 20
-2.104080
 30
0.0
 11
-1.955930
 21
-2.104080
 31
0.0
  0
LINE
  8
Dim-PT
 10
-2.178150
 20
-1.879550
 30
0.0
 11
-2.071670
 21
-1.879550
 31
0.0
  0
LINE
  8
Dim-PT
 10
-2.071670
 20
-1.879550
 30
0.0
 11
-2.016110
 21
-1.870290
 31
0.0
  0
LINE
  8
Dim-PT
 10
-2.016110
 20
-1.870290
 30
0.0
 11
-1.988330
 21
-1.861030
 31
0.0
  0
LINE
  8
Dim-PT
 10
-1.988330
 20
-1.861030
 30
0.0
 11
-1.960560
 21
-1.840200
 31
0.0
  0
LINE
  8
Dim-PT
 10
-1.960560
 20
-1.840200
 30
0.0
 11
-1.946670
 21
-1.821680
 31
0.0
  0
LINE
  8
Dim-PT
 10
-1.946670
 20
-1.821680
 30
0.0
 11
-1.946670
 21
-1.784640
 31
0.0
  0
LINE
  8
Dim-PT
 10
-1.946670
 20
-1.784640
 30
0.0
 11
-1.960560
 21
-1.768440
 31
0.0
  0
LINE
  8
Dim-PT
 10
-1.960560
 20
-1.768440
 30
0.0
 11
-1.988330
 21
-1.747600
 31
0.0
  0
LINE
  8
Dim-PT
 10
-1.988330
 20
-1.747600
 30
0.0
 11
-2.016110
 21
-1.738340
 31
0.0
  0
LINE
  8
Dim-PT
 10
-2.016110
 20
-1.738340
 30
0.0
 11
-2.071670
 21
-1.729080
 31
0.0
  0
LINE
  8
Dim-PT
 10
-2.071670
 20
-1.729080
 30
0.0
 11
-2.178150
 21
-1.729080
 31
0.0
  0
LINE
  8
Dim-PT
 10
-2.178150
 20
-1.729080
 30
0.0
 11
-2.233700
 21
-1.738340
 31
0.0
  0
LINE
  8
Dim-PT
 10
-2.233700
 20
-1.738340
 30
0.0
 11
-2.261480
 21
-1.747600
 31
0.0
  0
LINE
  8
Dim-PT
 10
-2.261480
 20
-1.747600
 30
0.0
 11
-2.289260
 21
-1.768440
 31
0.0
  0
LINE
  8
Dim-PT
 10
-2.289260
 20
-1.768440
 30
0.0
 11
-2.303150
 21
-1.784640
 31
0.0
  0
LINE
  8
Dim-PT
 10
-2.303150
 20
-1.784640
 30
0.0
 11
-2.303150
 21
-1.821680
 31
0.0
  0
LINE
  8
Dim-PT
 10
-2.303150
 20
-1.821680
 30
0.0
 11
-2.289260
 21
-1.840200
 31
0.0
  0
LINE
  8
Dim-PT
 10
-2.289260
 20
-1.840200
 30
0.0
 11
-2.261480
 21
-1.861030
 31
0.0
  0
LINE
  8
Dim-PT
 10
-2.261480
 20
-1.861030
 30
0.0
 11
-2.233700
 21
-1.870290
 31
0.0
  0
LINE
  8
Dim-PT
 10
-2.233700
 20
-1.870290
 30
0.0
 11
-2.178150
 21
-1.879550
 31
0.0
  0
LINE
  8
Dim-PT
 10
-2.303150
 20
-1.474450
 30
0.0
 11
-2.303150
 21
-1.643440
 31
0.0
  0
LINE
  8
Dim-PT
 10
-2.303150
 20
-1.643440
 30
0.0
 11
-2.136480
 21
-1.643440
 31
0.0
  0
LINE
  8
Dim-PT
 10
-2.136480
 20
-1.643440
 30
0.0
 11
-2.164260
 21
-1.594820
 31
0.0
  0
LINE
  8
Dim-PT
 10
-2.164260
 20
-1.594820
 30
0.0
 11
-2.164260
 21
-1.548530
 31
0.0
  0
LINE
  8
Dim-PT
 10
-2.164260
 20
-1.548530
 30
0.0
 11
-2.150370
 21
-1.511490
 31
0.0
  0
LINE
  8
Dim-PT
 10
-2.150370
 20
-1.511490
 30
0.0
 11
-2.127220
 21
-1.488340
 31
0.0
  0
LINE
  8
Dim-PT
 10
-2.127220
 20
-1.488340
 30
0.0
 11
-2.085560
 21
-1.462880
 31
0.0
  0
LINE
  8
Dim-PT
 10
-2.085560
 20
-1.462880
 30
0.0
 11
-2.030000
 21
-1.462880
 31
0.0
  0
LINE
  8
Dim-PT
 10
-2.030000
 20
-1.462880
 30
0.0
 11
-1.988330
 21
-1.488340
 31
0.0
  0
LINE
  8
Dim-PT
 10
-1.988330
 20
-1.488340
 30
0.0
 11
-1.960560
 21
-1.523070
 31
0.0
  0
LINE
  8
Dim-PT
 10
-1.960560
 20
-1.523070
 30
0.0
 11
-1.946670
 21
-1.560100
 31
0.0
  0
LINE
  8
Dim-PT
 10
-1.946670
 20
-1.560100
 30
0.0
 11
-1.946670
 21
-1.583250
 31
0.0
  0
LINE
  8
Dim-PT
 10
-1.946670
 20
-1.583250
 30
0.0
 11
-1.974440
 21
-1.631860
 31
0.0
  0
LINE
  8
Dim-PT
 10
-1.974440
 20
-1.631860
 30
0.0
 11
-2.002220
 21
-1.655010
 31
0.0
  0
LINE
  8
Dim-PT
 10
-0.417500
 20
0.000000
 30
0.0
 11
-2.005000
 21
0.000000
 31
0.0
  0
LINE
  8
Dim-PT
 10
-1.050000
 20
-1.050000
 30
0.0
 11
-2.005000
 21
-1.050000
 31
0.0
  0
LINE
  8
Dim-PT
 10
-1.930880
 20
0.096590
 30
0.0
 11
-1.905000
 21
0.000000
 31
0.0
  0
LINE
  8
Dim-PT
 10
-1.905000
 20
0.000000
 30
0.0
 11
-1.879120
 21
0.096590
 31
0.0
  0
LINE
  8
Dim-PT
 10
-1.879120
 20
-1.146590
 30
0.0
 11
-1.905000
 21
-1.050000
 31
0.0
  0
LINE
  8
Dim-PT
 10
-1.905000
 20
-1.050000
 30
0.0
 11
-1.930880
 21
-1.146590
 31
0.0
  0
LINE
  8
Dim-PT
 10
-1.905000
 20
0.250000
 30
0.0
 11
-1.905000
 21
-2.540000
 31
0.0
  0
LINE
  8
Dim-PT
 10
2.243700
 20
-0.344910
 30
0.0
 11
2.141850
 21
-0.300930
 31
0.0
  0
LINE
  8
Dim-PT
 10
2.141850
 20
-0.300930
 30
0.0
 11
2.498330
 21
-0.300930
 31
0.0
  0
LINE
  8
Dim-PT
 10
2.489070
 20
-0.074070
 30
0.0
 11
2.498330
 21
-0.078700
 31
0.0
  0
LINE
  8
Dim-PT
 10
2.498330
 20
-0.078700
 30
0.0
 11
2.498330
 21
-0.090280
 31
0.0
  0
LINE
  8
Dim-PT
 10
2.498330
 20
-0.090280
 30
0.0
 11
2.489070
 21
-0.094910
 31
0.0
  0
LINE
  8
Dim-PT
 10
2.489070
 20
-0.094910
 30
0.0
 11
2.465930
 21
-0.094910
 31
0.0
  0
LINE
  8
Dim-PT
 10
2.465930
 20
-0.094910
 30
0.0
 11
2.456670
 21
-0.090280
 31
0.0
  0
LINE
  8
Dim-PT
 10
2.456670
 20
-0.090280
 30
0.0
 11
2.456670
 21
-0.078700
 31
0.0
  0
LINE
  8
Dim-PT
 10
2.456670
 20
-0.078700
 30
0.0
 11
2.465930
 21
-0.074070
 31
0.0
  0
LINE
  8
Dim-PT
 10
2.465930
 20
-0.074070
 30
0.0
 11
2.489070
 21
-0.074070
 31
0.0
  0
LINE
  8
Dim-PT
 10
2.211300
 20
0.125000
 30
0.0
 11
2.183520
 21
0.136570
 31
0.0
  0
LINE
  8
Dim-PT
 10
2.183520
 20
0.136570
 30
0.0
 11
2.155740
 21
0.159720
 31
0.0
  0
LINE
  8
Dim-PT
 10
2.155740
 20
0.159720
 30
0.0
 11
2.141850
 21
0.185190
 31
0.0
  0
LINE
  8
Dim-PT
 10
2.141850
 20
0.185190
 30
0.0
 11
2.141850
 21
0.256940
 31
0.0
  0
LINE
  8
Dim-PT
 10
2.141850
 20
0.256940
 30
0.0
 11
2.155740
 21
0.280090
 31
0.0
  0
LINE
  8
Dim-PT
 10
2.155740
 20
0.280090
 30
0.0
 11
2.183520
 21
0.305560
 31
0.0
  0
LINE
  8
Dim-PT
 10
2.183520
 20
0.305560
 30
0.0
 11
2.211300
 21
0.317130
 31
0.0
  0
LINE
  8
Dim-PT
 10
2.211300
 20
0.317130
 30
0.0
 11
2.266850
 21
0.317130
 31
0.0
  0
LINE
  8
Dim-PT
 10
2.266850
 20
0.317130
 30
0.0
 11
2.294630
 21
0.305560
 31
0.0
  0
LINE
  8
Dim-PT
 10
2.294630
 20
0.305560
 30
0.0
 11
2.498330
 21
0.125000
 31
0.0
  0
LINE
  8
Dim-PT
 10
2.498330
 20
0.125000
 30
0.0
 11
2.498330
 21
0.317130
 31
0.0
  0
LINE
  8
Dim-PT
 10
0.400000
 20
0.600000
 30
0.0
 11
2.640000
 21
0.600000
 31
0.0
  0
LINE
  8
Dim-PT
 10
1.350000
 20
-0.600000
 30
0.0
 11
2.640000
 21
-0.600000
 31
0.0
  0
LINE
  8
Dim-PT
 10
2.565880
 20
0.503410
 30
0.0
 11
2.540000
 21
0.600000
 31
0.0
  0
LINE
  8
Dim-PT
 10
2.540000
 20
0.600000
 30
0.0
 11
2.514120
 21
0.503410
 31
0.0
  0
LINE
  8
Dim-PT
 10
2.514120
 20
-0.503410
 30
0.0
 11
2.540000
 21
-0.600000
 31
0.0
  0
LINE
  8
Dim-PT
 10
2.540000
 20
-0.600000
 30
0.0
 11
2.565880
 21
-0.503410
 31
0.0
  0
LINE
  8
Dim-PT
 10
2.540000
 20
0.600000
 30
0.0
 11
2.540000
 21
-0.600000
 31
0.0
  0
LINE
  8
Dim-PT
 10
2.266850
 20
1.872960
 30
0.0
 11
2.373330
 21
1.872960
 31
0.0
  0
LINE
  8
Dim-PT
 10
2.373330
 20
1.872960
 30
0.0
 11
2.428890
 21
1.882220
 31
0.0
  0
LINE
  8
Dim-PT
 10
2.428890
 20
1.882220
 30
0.0
 11
2.456670
 21
1.891480
 31
0.0
  0
LINE
  8
Dim-PT
 10
2.456670
 20
1.891480
 30
0.0
 11
2.484440
 21
1.912310
 31
0.0
  0
LINE
  8
Dim-PT
 10
2.484440
 20
1.912310
 30
0.0
 11
2.498330
 21
1.930830
 31
0.0
  0
LINE
  8
Dim-PT
 10
2.498330
 20
1.930830
 30
0.0
 11
2.498330
 21
1.967870
 31
0.0
  0
LINE
  8
Dim-PT
 10
2.498330
 20
1.967870
 30
0.0
 11
2.484440
 21
1.984070
 31
0.0
  0
LINE
  8
Dim-PT
 10
2.484440
 20
1.984070
 30
0.0
 11
2.456670
 21
2.004910
 31
0.0
  0
LINE
  8
Dim-PT
 10
2.456670
 20
2.004910
 30
0.0
 11
2.428890
 21
2.014170
 31
0.0
  0
LINE
  8
Dim-PT
 10
2.428890
 20
2.014170
 30
0.0
 11
2.373330
 21
2.023430
 31
0.0
  0
LINE
  8
Dim-PT
 10
2.373330
 20
2.023430
 30
0.0
 11
2.266850
 21
2.023430
 31
0.0
  0
LINE
  8
Dim-PT
 10
2.266850
 20
2.023430
 30
0.0
 11
2.211300
 21
2.014170
 31
0.0
  0
LINE
  8
Dim-PT
 10
2.211300
 20
2.014170
 30
0.0
 11
2.183520
 21
2.004910
 31
0.0
  0
LINE
  8
Dim-PT
 10
2.183520
 20
2.004910
 30
0.0
 11
2.155740
 21
1.984070
 31
0.0
  0
LINE
  8
Dim-PT
 10
2.155740
 20
1.984070
 30
0.0
 11
2.141850
 21
1.967870
 31
0.0
  0
LINE
  8
Dim-PT
 10
2.141850
 20
1.967870
 30
0.0
 11
2.141850
 21
1.930830
 31
0.0
  0
LINE
  8
Dim-PT
 10
2.141850
 20
1.930830
 30
0.0
 11
2.155740
 21
1.912310
 31
0.0
  0
LINE
  8
Dim-PT
 10
2.155740
 20
1.912310
 30
0.0
 11
2.183520
 21
1.891480
 31
0.0
  0
LINE
  8
Dim-PT
 10
2.183520
 20
1.891480
 30
0.0
 11
2.211300
 21
1.882220
 31
0.0
  0
LINE
  8
Dim-PT
 10
2.211300
 20
1.882220
 30
0.0
 11
2.266850
 21
1.872960
 31
0.0
  0
LINE
  8
Dim-PT
 10
2.489070
 20
2.148430
 30
0.0
 11
2.498330
 21
2.143800
 31
0.0
  0
LINE
  8
Dim-PT
 10
2.498330
 20
2.143800
 30
0.0
 11
2.498330
 21
2.132220
 31
0.0
  0
LINE
  8
Dim-PT
 10
2.498330
 20
2.132220
 30
0.0
 11
2.489070
 21
2.127590
 31
0.0
  0
LINE
  8
Dim-PT
 10
2.489070
 20
2.127590
 30
0.0
 11
2.465930
 21
2.127590
 31
0.0
  0
LINE
  8
Dim-PT
 10
2.465930
 20
2.127590
 30
0.0
 11
2.456670
 21
2.132220
 31
0.0
  0
LINE
  8
Dim-PT
 10
2.456670
 20
2.132220
 30
0.0
 11
2.456670
 21
2.143800
 31
0.0
  0
LINE
  8
Dim-PT
 10
2.456670
 20
2.143800
 30
0.0
 11
2.465930
 21
2.148430
 31
0.0
  0
LINE
  8
Dim-PT
 10
2.465930
 20
2.148430
 30
0.0
 11
2.489070
 21
2.148430
 31
0.0
  0
LINE
  8
Dim-PT
 10
2.294630
 20
2.551200
 30
0.0
 11
2.317780
 21
2.528060
 31
0.0
  0
LINE
  8
Dim-PT
 10
2.317780
 20
2.528060
 30
0.0
 11
2.331670
 21
2.481760
 31
0.0
  0
LINE
  8
Dim-PT
 10
2.331670
 20
2.481760
 30
0.0
 11
2.331670
 21
2.437780
 31
0.0
  0
LINE
  8
Dim-PT
 10
2.331670
 20
2.437780
 30
0.0
 11
2.317780
 21
2.391480
 31
0.0
  0
LINE
  8
Dim-PT
 10
2.317780
 20
2.391480
 30
0.0
 11
2.308520
 21
2.370650
 31
0.0
  0
LINE
  8
Dim-PT
 10
2.308520
 20
2.370650
 30
0.0
 11
2.280740
 21
2.359070
 31
0.0
  0
LINE
  8
Dim-PT
 10
2.280740
 20
2.359070
 30
0.0
 11
2.225190
 21
2.359070
 31
0.0
  0
LINE
  8
Dim-PT
 10
2.225190
 20
2.359070
 30
0.0
 11
2.183520
 21
2.370650
 31
0.0
  0
LINE
  8
Dim-PT
 10
2.183520
 20
2.370650
 30
0.0
 11
2.155740
 21
2.403060
 31
0.0
  0
LINE
  8
Dim-PT
 10
2.155740
 20
2.403060
 30
0.0
 11
2.141850
 21
2.437780
 31
0.0
  0
LINE
  8
Dim-PT
 10
2.141850
 20
2.437780
 30
0.0
 11
2.141850
 21
2.481760
 31
0.0
  0
LINE
  8
Dim-PT
 10
2.141850
 20
2.481760
 30
0.0
 11
2.155740
 21
2.518800
 31
0.0
  0
LINE
  8
Dim-PT
 10
2.155740
 20
2.518800
 30
0.0
 11
2.183520
 21
2.539630
 31
0.0
  0
LINE
  8
Dim-PT
 10
2.183520
 20
2.539630
 30
0.0
 11
2.225190
 21
2.551200
 31
0.0
  0
LINE
  8
Dim-PT
 10
2.225190
 20
2.551200
 30
0.0
 11
2.387220
 21
2.551200
 31
0.0
  0
LINE
  8
Dim-PT
 10
2.387220
 20
2.551200
 30
0.0
 11
2.428890
 21
2.539630
 31
0.0
  0
LINE
  8
Dim-PT
 10
2.428890
 20
2.539630
 30
0.0
 11
2.456670
 21
2.528060
 31
0.0
  0
LINE
  8
Dim-PT
 10
2.456670
 20
2.528060
 30
0.0
 11
2.484440
 21
2.504910
 31
0.0
  0
LINE
  8
Dim-PT
 10
2.484440
 20
2.504910
 30
0.0
 11
2.498330
 21
2.472500
 31
0.0
  0
LINE
  8
Dim-PT
 10
2.498330
 20
2.472500
 30
0.0
 11
2.498330
 21
2.437780
 31
0.0
  0
LINE
  8
Dim-PT
 10
2.498330
 20
2.437780
 30
0.0
 11
2.484440
 21
2.403060
 31
0.0
  0
LINE
  8
Dim-PT
 10
2.484440
 20
2.403060
 30
0.0
 11
2.456670
 21
2.370650
 31
0.0
  0
LINE
  8
Dim-PT
 10
0.400000
 20
0.600000
 30
0.0
 11
2.640000
 21
0.600000
 31
0.0
  0
LINE
  8
Dim-PT
 10
0.400000
 20
1.500000
 30
0.0
 11
2.640000
 21
1.500000
 31
0.0
  0
LINE
  8
Dim-PT
 10
2.565880
 20
0.503410
 30
0.0
 11
2.540000
 21
0.600000
 31
0.0
  0
LINE
  8
Dim-PT
 10
2.540000
 20
0.600000
 30
0.0
 11
2.514120
 21
0.503410
 31
0.0
  0
LINE
  8
Dim-PT
 10
2.514120
 20
1.596590
 30
0.0
 11
2.540000
 21
1.500000
 31
0.0
  0
LINE
  8
Dim-PT
 10
2.540000
 20
1.500000
 30
0.0
 11
2.565880
 21
1.596590
 31
0.0
  0
LINE
  8
Dim-PT
 10
2.540000
 20
0.350000
 30
0.0
 11
2.540000
 21
2.857500
 31
0.0
  0
LINE
  8
Dim-PT
 10
2.266850
 20
-2.572040
 30
0.0
 11
2.373330
 21
-2.572040
 31
0.0
  0
LINE
  8
Dim-PT
 10
2.373330
 20
-2.572040
 30
0.0
 11
2.428890
 21
-2.562780
 31
0.0
  0
LINE
  8
Dim-PT
 10
2.428890
 20
-2.562780
 30
0.0
 11
2.456670
 21
-2.553520
 31
0.0
  0
LINE
  8
Dim-PT
 10
2.456670
 20
-2.553520
 30
0.0
 11
2.484440
 21
-2.532690
 31
0.0
  0
LINE
  8
Dim-PT
 10
2.484440
 20
-2.532690
 30
0.0
 11
2.498330
 21
-2.514170
 31
0.0
  0
LINE
  8
Dim-PT
 10
2.498330
 20
-2.514170
 30
0.0
 11
2.498330
 21
-2.477130
 31
0.0
  0
LINE
  8
Dim-PT
 10
2.498330
 20
-2.477130
 30
0.0
 11
2.484440
 21
-2.460930
 31
0.0
  0
LINE
  8
Dim-PT
 10
2.484440
 20
-2.460930
 30
0.0
 11
2.456670
 21
-2.440090
 31
0.0
  0
LINE
  8
Dim-PT
 10
2.456670
 20
-2.440090
 30
0.0
 11
2.428890
 21
-2.430830
 31
0.0
  0
LINE
  8
Dim-PT
 10
2.428890
 20
-2.430830
 30
0.0
 11
2.373330
 21
-2.421570
 31
0.0
  0
LINE
  8
Dim-PT
 10
2.373330
 20
-2.421570
 30
0.0
 11
2.266850
 21
-2.421570
 31
0.0
  0
LINE
  8
Dim-PT
 10
2.266850
 20
-2.421570
 30
0.0
 11
2.211300
 21
-2.430830
 31
0.0
  0
LINE
  8
Dim-PT
 10
2.211300
 20
-2.430830
 30
0.0
 11
2.183520
 21
-2.440090
 31
0.0
  0
LINE
  8
Dim-PT
 10
2.183520
 20
-2.440090
 30
0.0
 11
2.155740
 21
-2.460930
 31
0.0
  0
LINE
  8
Dim-PT
 10
2.155740
 20
-2.460930
 30
0.0
 11
2.141850
 21
-2.477130
 31
0.0
  0
LINE
  8
Dim-PT
 10
2.141850
 20
-2.477130
 30
0.0
 11
2.141850
 21
-2.514170
 31
0.0
  0
LINE
  8
Dim-PT
 10
2.141850
 20
-2.514170
 30
0.0
 11
2.155740
 21
-2.532690
 31
0.0
  0
LINE
  8
Dim-PT
 10
2.155740
 20
-2.532690
 30
0.0
 11
2.183520
 21
-2.553520
 31
0.0
  0
LINE
  8
Dim-PT
 10
2.183520
 20
-2.553520
 30
0.0
 11
2.211300
 21
-2.562780
 31
0.0
  0
LINE
  8
Dim-PT
 10
2.211300
 20
-2.562780
 30
0.0
 11
2.266850
 21
-2.572040
 31
0.0
  0
LINE
  8
Dim-PT
 10
2.489070
 20
-2.296570
 30
0.0
 11
2.498330
 21
-2.301200
 31
0.0
  0
LINE
  8
Dim-PT
 10
2.498330
 20
-2.301200
 30
0.0
 11
2.498330
 21
-2.312780
 31
0.0
  0
LINE
  8
Dim-PT
 10
2.498330
 20
-2.312780
 30
0.0
 11
2.489070
 21
-2.317410
 31
0.0
  0
LINE
  8
Dim-PT
 10
2.489070
 20
-2.317410
 30
0.0
 11
2.465930
 21
-2.317410
 31
0.0
  0
LINE
  8
Dim-PT
 10
2.465930
 20
-2.317410
 30
0.0
 11
2.456670
 21
-2.312780
 31
0.0
  0
LINE
  8
Dim-PT
 10
2.456670
 20
-2.312780
 30
0.0
 11
2.456670
 21
-2.301200
 31
0.0
  0
LINE
  8
Dim-PT
 10
2.456670
 20
-2.301200
 30
0.0
 11
2.465930
 21
-2.296570
 31
0.0
  0
LINE
  8
Dim-PT
 10
2.465930
 20
-2.296570
 30
0.0
 11
2.489070
 21
-2.296570
 31
0.0
  0
LINE
  8
Dim-PT
 10
2.294630
 20
-1.893800
 30
0.0
 11
2.317780
 21
-1.916940
 31
0.0
  0
LINE
  8
Dim-PT
 10
2.317780
 20
-1.916940
 30
0.0
 11
2.331670
 21
-1.963240
 31
0.0
  0
LINE
  8
Dim-PT
 10
2.331670
 20
-1.963240
 30
0.0
 11
2.331670
 21
-2.007220
 31
0.0
  0
LINE
  8
Dim-PT
 10
2.331670
 20
-2.007220
 30
0.0
 11
2.317780
 21
-2.053520
 31
0.0
  0
LINE
  8
Dim-PT
 10
2.317780
 20
-2.053520
 30
0.0
 11
2.308520
 21
-2.074350
 31
0.0
  0
LINE
  8
Dim-PT
 10
2.308520
 20
-2.074350
 30
0.0
 11
2.280740
 21
-2.085930
 31
0.0
  0
LINE
  8
Dim-PT
 10
2.280740
 20
-2.085930
 30
0.0
 11
2.225190
 21
-2.085930
 31
0.0
  0
LINE
  8
Dim-PT
 10
2.225190
 20
-2.085930
 30
0.0
 11
2.183520
 21
-2.074350
 31
0.0
  0
LINE
  8
Dim-PT
 10
2.183520
 20
-2.074350
 30
0.0
 11
2.155740
 21
-2.041940
 31
0.0
  0
LINE
  8
Dim-PT
 10
2.155740
 20
-2.041940
 30
0.0
 11
2.141850
 21
-2.007220
 31
0.0
  0
LINE
  8
Dim-PT
 10
2.141850
 20
-2.007220
 30
0.0
 11
2.141850
 21
-1.963240
 31
0.0
  0
LINE
  8
Dim-PT
 10
2.141850
 20
-1.963240
 30
0.0
 11
2.155740
 21
-1.926200
 31
0.0
  0
LINE
  8
Dim-PT
 10
2.155740
 20
-1.926200
 30
0.0
 11
2.183520
 21
-1.905370
 31
0.0
  0
LINE
  8
Dim-PT
 10
2.183520
 20
-1.905370
 30
0.0
 11
2.225190
 21
-1.893800
 31
0.0
  0
LINE
  8
Dim-PT
 10
2.225190
 20
-1.893800
 30
0.0
 11
2.387220
 21
-1.893800
 31
0.0
  0
LINE
  8
Dim-PT
 10
2.387220
 20
-1.893800
 30
0.0
 11
2.428890
 21
-1.905370
 31
0.0
  0
LINE
  8
Dim-PT
 10
2.428890
 20
-1.905370
 30
0.0
 11
2.456670
 21
-1.916940
 31
0.0
  0
LINE
  8
Dim-PT
 10
2.456670
 20
-1.916940
 30
0.0
 11
2.484440
 21
-1.940090
 31
0.0
  0
LINE
  8
Dim-PT
 10
2.484440
 20
-1.940090
 30
0.0
 11
2.498330
 21
-1.972500
 31
0.0
  0
LINE
  8
Dim-PT
 10
2.498330
 20
-1.972500
 30
0.0
 11
2.498330
 21
-2.007220
 31
0.0
  0
LINE
  8
Dim-PT
 10
2.498330
 20
-2.007220
 30
0.0
 11
2.484440
 21
-2.041940
 31
0.0
  0
LINE
  8
Dim-PT
 10
2.484440
 20
-2.041940
 30
0.0
 11
2.456670
 21
-2.074350
 31
0.0
  0
LINE
  8
Dim-PT
 10
1.350000
 20
-0.600000
 30
0.0
 11
2.640000
 21
-0.600000
 31
0.0
  0
LINE
  8
Dim-PT
 10
1.350000
 20
-1.500000
 30
0.0
 11
2.640000
 21
-1.500000
 31
0.0
  0
LINE
  8
Dim-PT
 10
2.514120
 20
-0.503410
 30
0.0
 11
2.540000
 21
-0.600000
 31
0.0
  0
LINE
  8
Dim-PT
 10
2.540000
 20
-0.600000
 30
0.0
 11
2.565880
 21
-0.503410
 31
0.0
  0
LINE
  8
Dim-PT
 10
2.565880
 20
-1.596590
 30
0.0
 11
2.540000
 21
-1.500000
 31
0.0
  0
LINE
  8
Dim-PT
 10
2.540000
 20
-1.500000
 30
0.0
 11
2.514120
 21
-1.596590
 31
0.0
  0
LINE
  8
Dim-PT
 10
2.540000
 20
-0.350000
 30
0.0
 11
2.540000
 21
-2.857500
 31
0.0
  0
LINE
  8
Dim-PT
 10
2.846300
 20
-0.125000
 30
0.0
 11
2.818520
 21
-0.113430
 31
0.0
  0
LINE
  8
Dim-PT
 10
2.818520
 20
-0.113430
 30
0.0
 11
2.790740
 21
-0.092590
 31
0.0
  0
LINE
  8
Dim-PT
 10
2.790740
 20
-0.092590
 30
0.0
 11
2.776850
 21
-0.057870
 31
0.0
  0
LINE
  8
Dim-PT
 10
2.776850
 20
-0.057870
 30
0.0
 11
2.776850
 21
-0.011570
 31
0.0
  0
LINE
  8
Dim-PT
 10
2.776850
 20
-0.011570
 30
0.0
 11
2.790740
 21
0.032410
 31
0.0
  0
LINE
  8
Dim-PT
 10
2.790740
 20
0.032410
 30
0.0
 11
2.818520
 21
0.055560
 31
0.0
  0
LINE
  8
Dim-PT
 10
2.818520
 20
0.055560
 30
0.0
 11
2.846300
 21
0.067130
 31
0.0
  0
LINE
  8
Dim-PT
 10
2.846300
 20
0.067130
 30
0.0
 11
2.887960
 21
0.067130
 31
0.0
  0
LINE
  8
Dim-PT
 10
2.887960
 20
0.067130
 30
0.0
 11
2.915740
 21
0.055560
 31
0.0
  0
LINE
  8
Dim-PT
 10
2.915740
 20
0.055560
 30
0.0
 11
2.929630
 21
0.046300
 31
0.0
  0
LINE
  8
Dim-PT
 10
2.929630
 20
0.046300
 30
0.0
 11
2.943520
 21
0.020830
 31
0.0
  0
LINE
  8
Dim-PT
 10
2.943520
 20
0.020830
 30
0.0
 11
2.943520
 21
-0.048610
 31
0.0
  0
LINE
  8
Dim-PT
 10
2.943520
 20
0.020830
 30
0.0
 11
2.952780
 21
0.055560
 31
0.0
  0
LINE
  8
Dim-PT
 10
2.952780
 20
0.055560
 30
0.0
 11
2.994440
 21
0.078700
 31
0.0
  0
LINE
  8
Dim-PT
 10
2.994440
 20
0.078700
 30
0.0
 11
3.050000
 21
0.078700
 31
0.0
  0
LINE
  8
Dim-PT
 10
3.050000
 20
0.078700
 30
0.0
 11
3.091670
 21
0.067130
 31
0.0
  0
LINE
  8
Dim-PT
 10
3.091670
 20
0.067130
 30
0.0
 11
3.119440
 21
0.046300
 31
0.0
  0
LINE
  8
Dim-PT
 10
3.119440
 20
0.046300
 30
0.0
 11
3.133330
 21
-0.011570
 31
0.0
  0
LINE
  8
Dim-PT
 10
3.133330
 20
-0.011570
 30
0.0
 11
3.133330
 21
-0.057870
 31
0.0
  0
LINE
  8
Dim-PT
 10
3.133330
 20
-0.057870
 30
0.0
 11
3.119440
 21
-0.092590
 31
0.0
  0
LINE
  8
Dim-PT
 10
3.119440
 20
-0.092590
 30
0.0
 11
3.063890
 21
-0.125000
 31
0.0
  0
LINE
  8
Dim-PT
 10
0.400000
 20
1.500000
 30
0.0
 11
3.275000
 21
1.500000
 31
0.0
  0
LINE
  8
Dim-PT
 10
1.350000
 20
-1.500000
 30
0.0
 11
3.275000
 21
-1.500000
 31
0.0
  0
LINE
  8
Dim-PT
 10
3.200880
 20
1.403410
 30
0.0
 11
3.175000
 21
1.500000
 31
0.0
  0
LINE
  8
Dim-PT
 10
3.175000
 20
1.500000
 30
0.0
 11
3.149120
 21
1.403410
 31
0.0
  0
LINE
  8
Dim-PT
 10
3.149120
 20
-1.403410
 30
0.0
 11
3.175000
 21
-1.500000
 31
0.0
  0
LINE
  8
Dim-PT
 10
3.175000
 20
-1.500000
 30
0.0
 11
3.200880
 21
-1.403410
 31
0.0
  0
LINE
  8
Dim-PT
 10
3.175000
 20
1.500000
 30
0.0
 11
3.175000
 21
-1.500000
 31
0.0
  0
LINE
  8
Dim-PT
 10
1.430460
 20
-3.219350
 30
0.0
 11
1.430460
 21
-3.325830
 31
0.0
  0
LINE
  8
Dim-PT
 10
1.430460
 20
-3.325830
 30
0.0
 11
1.439720
 21
-3.381390
 31
0.0
  0
LINE
  8
Dim-PT
 10
1.439720
 20
-3.381390
 30
0.0
 11
1.448980
 21
-3.409170
 31
0.0
  0
LINE
  8
Dim-PT
 10
1.448980
 20
-3.409170
 30
0.0
 11
1.469810
 21
-3.436940
 31
0.0
  0
LINE
  8
Dim-PT
 10
1.469810
 20
-3.436940
 30
0.0
 11
1.488330
 21
-3.450830
 31
0.0
  0
LINE
  8
Dim-PT
 10
1.488330
 20
-3.450830
 30
0.0
 11
1.525370
 21
-3.450830
 31
0.0
  0
LINE
  8
Dim-PT
 10
1.525370
 20
-3.450830
 30
0.0
 11
1.541570
 21
-3.436940
 31
0.0
  0
LINE
  8
Dim-PT
 10
1.541570
 20
-3.436940
 30
0.0
 11
1.562410
 21
-3.409170
 31
0.0
  0
LINE
  8
Dim-PT
 10
1.562410
 20
-3.409170
 30
0.0
 11
1.571670
 21
-3.381390
 31
0.0
  0
LINE
  8
Dim-PT
 10
1.571670
 20
-3.381390
 30
0.0
 11
1.580930
 21
-3.325830
 31
0.0
  0
LINE
  8
Dim-PT
 10
1.580930
 20
-3.325830
 30
0.0
 11
1.580930
 21
-3.219350
 31
0.0
  0
LINE
  8
Dim-PT
 10
1.580930
 20
-3.219350
 30
0.0
 11
1.571670
 21
-3.163800
 31
0.0
  0
LINE
  8
Dim-PT
 10
1.571670
 20
-3.163800
 30
0.0
 11
1.562410
 21
-3.136020
 31
0.0
  0
LINE
  8
Dim-PT
 10
1.562410
 20
-3.136020
 30
0.0
 11
1.541570
 21
-3.108240
 31
0.0
  0
LINE
  8
Dim-PT
 10
1.541570
 20
-3.108240
 30
0.0
 11
1.525370
 21
-3.094350
 31
0.0
  0
LINE
  8
Dim-PT
 10
1.525370
 20
-3.094350
 30
0.0
 11
1.488330
 21
-3.094350
 31
0.0
  0
LINE
  8
Dim-PT
 10
1.488330
 20
-3.094350
 30
0.0
 11
1.469810
 21
-3.108240
 31
0.0
  0
LINE
  8
Dim-PT
 10
1.469810
 20
-3.108240
 30
0.0
 11
1.448980
 21
-3.136020
 31
0.0
  0
LINE
  8
Dim-PT
 10
1.448980
 20
-3.136020
 30
0.0
 11
1.439720
 21
-3.163800
 31
0.0
  0
LINE
  8
Dim-PT
 10
1.439720
 20
-3.163800
 30
0.0
 11
1.430460
 21
-3.219350
 31
0.0
  0
LINE
  8
Dim-PT
 10
1.705930
 20
-3.441570
 30
0.0
 11
1.701300
 21
-3.450830
 31
0.0
  0
LINE
  8
Dim-PT
 10
1.701300
 20
-3.450830
 30
0.0
 11
1.689720
 21
-3.450830
 31
0.0
  0
LINE
  8
Dim-PT
 10
1.689720
 20
-3.450830
 30
0.0
 11
1.685090
 21
-3.441570
 31
0.0
  0
LINE
  8
Dim-PT
 10
1.685090
 20
-3.441570
 30
0.0
 11
1.685090
 21
-3.418430
 31
0.0
  0
LINE
  8
Dim-PT
 10
1.685090
 20
-3.418430
 30
0.0
 11
1.689720
 21
-3.409170
 31
0.0
  0
LINE
  8
Dim-PT
 10
1.689720
 20
-3.409170
 30
0.0
 11
1.701300
 21
-3.409170
 31
0.0
  0
LINE
  8
Dim-PT
 10
1.701300
 20
-3.409170
 30
0.0
 11
1.705930
 21
-3.418430
 31
0.0
  0
LINE
  8
Dim-PT
 10
1.705930
 20
-3.418430
 30
0.0
 11
1.705930
 21
-3.441570
 31
0.0
  0
LINE
  8
Dim-PT
 10
2.108700
 20
-3.247130
 30
0.0
 11
2.085560
 21
-3.270280
 31
0.0
  0
LINE
  8
Dim-PT
 10
2.085560
 20
-3.270280
 30
0.0
 11
2.039260
 21
-3.284170
 31
0.0
  0
LINE
  8
Dim-PT
 10
2.039260
 20
-3.284170
 30
0.0
 11
1.995280
 21
-3.284170
 31
0.0
  0
LINE
  8
Dim-PT
 10
1.995280
 20
-3.284170
 30
0.0
 11
1.948980
 21
-3.270280
 31
0.0
  0
LINE
  8
Dim-PT
 10
1.948980
 20
-3.270280
 30
0.0
 11
1.928150
 21
-3.261020
 31
0.0
  0
LINE
  8
Dim-PT
 10
1.928150
 20
-3.261020
 30
0.0
 11
1.916570
 21
-3.233240
 31
0.0
  0
LINE
  8
Dim-PT
 10
1.916570
 20
-3.233240
 30
0.0
 11
1.916570
 21
-3.177690
 31
0.0
  0
LINE
  8
Dim-PT
 10
1.916570
 20
-3.177690
 30
0.0
 11
1.928150
 21
-3.136020
 31
0.0
  0
LINE
  8
Dim-PT
 10
1.928150
 20
-3.136020
 30
0.0
 11
1.960560
 21
-3.108240
 31
0.0
  0
LINE
  8
Dim-PT
 10
1.960560
 20
-3.108240
 30
0.0
 11
1.995280
 21
-3.094350
 31
0.0
  0
LINE
  8
Dim-PT
 10
1.995280
 20
-3.094350
 30
0.0
 11
2.039260
 21
-3.094350
 31
0.0
  0
LINE
  8
Dim-PT
 10
2.039260
 20
-3.094350
 30
0.0
 11
2.076300
 21
-3.108240
 31
0.0
  0
LINE
  8
Dim-PT
 10
2.076300
 20
-3.108240
 30
0.0
 11
2.097130
 21
-3.136020
 31
0.0
  0
LINE
  8
Dim-PT
 10
2.097130
 20
-3.136020
 30
0.0
 11
2.108700
 21
-3.177690
 31
0.0
  0
LINE
  8
Dim-PT
 10
2.108700
 20
-3.177690
 30
0.0
 11
2.108700
 21
-3.339720
 31
0.0
  0
LINE
  8
Dim-PT
 10
2.108700
 20
-3.339720
 30
0.0
 11
2.097130
 21
-3.381390
 31
0.0
  0
LINE
  8
Dim-PT
 10
2.097130
 20
-3.381390
 30
0.0
 11
2.085560
 21
-3.409170
 31
0.0
  0
LINE
  8
Dim-PT
 10
2.085560
 20
-3.409170
 30
0.0
 11
2.062410
 21
-3.436940
 31
0.0
  0
LINE
  8
Dim-PT
 10
2.062410
 20
-3.436940
 30
0.0
 11
2.030000
 21
-3.450830
 31
0.0
  0
LINE
  8
Dim-PT
 10
2.030000
 20
-3.450830
 30
0.0
 11
1.995280
 21
-3.450830
 31
0.0
  0
LINE
  8
Dim-PT
 10
1.995280
 20
-3.450830
 30
0.0
 11
1.960560
 21
-3.436940
 31
0.0
  0
LINE
  8
Dim-PT
 10
1.960560
 20
-3.436940
 30
0.0
 11
1.928150
 21
-3.409170
 31
0.0
  0
LINE
  8
Dim-PT
 10
2.335560
 20
-3.094350
 30
0.0
 11
2.166570
 21
-3.094350
 31
0.0
  0
LINE
  8
Dim-PT
 10
2.166570
 20
-3.094350
 30
0.0
 11
2.166570
 21
-3.261020
 31
0.0
  0
LINE
  8
Dim-PT
 10
2.166570
 20
-3.261020
 30
0.0
 11
2.215190
 21
-3.233240
 31
0.0
  0
LINE
  8
Dim-PT
 10
2.215190
 20
-3.233240
 30
0.0
 11
2.261480
 21
-3.233240
 31
0.0
  0
LINE
  8
Dim-PT
 10
2.261480
 20
-3.233240
 30
0.0
 11
2.298520
 21
-3.247130
 31
0.0
  0
LINE
  8
Dim-PT
 10
2.298520
 20
-3.247130
 30
0.0
 11
2.321670
 21
-3.270280
 31
0.0
  0
LINE
  8
Dim-PT
 10
2.321670
 20
-3.270280
 30
0.0
 11
2.347130
 21
-3.311940
 31
0.0
  0
LINE
  8
Dim-PT
 10
2.347130
 20
-3.311940
 30
0.0
 11
2.347130
 21
-3.367500
 31
0.0
  0
LINE
  8
Dim-PT
 10
2.347130
 20
-3.367500
 30
0.0
 11
2.321670
 21
-3.409170
 31
0.0
  0
LINE
  8
Dim-PT
 10
2.321670
 20
-3.409170
 30
0.0
 11
2.286940
 21
-3.436940
 31
0.0
  0
LINE
  8
Dim-PT
 10
2.286940
 20
-3.436940
 30
0.0
 11
2.249910
 21
-3.450830
 31
0.0
  0
LINE
  8
Dim-PT
 10
2.249910
 20
-3.450830
 30
0.0
 11
2.226760
 21
-3.450830
 31
0.0
  0
LINE
  8
Dim-PT
 10
2.226760
 20
-3.450830
 30
0.0
 11
2.178150
 21
-3.423060
 31
0.0
  0
LINE
  8
Dim-PT
 10
2.178150
 20
-3.423060
 30
0.0
 11
2.155000
 21
-3.395280
 31
0.0
  0
LINE
  8
Dim-PT
 10
0.000000
 20
-0.417500
 30
0.0
 11
0.000000
 21
-3.592500
 31
0.0
  0
LINE
  8
Dim-PT
 10
0.950000
 20
-1.150000
 30
0.0
 11
0.950000
 21
-3.592500
 31
0.0
  0
LINE
  8
Dim-PT
 10
-0.096590
 20
-3.518380
 30
0.0
 11
0.000000
 21
-3.492500
 31
0.0
  0
LINE
  8
Dim-PT
 10
0.000000
 20
-3.492500
 30
0.0
 11
-0.096590
 21
-3.466620
 31
0.0
  0
LINE
  8
Dim-PT
 10
1.046590
 20
-3.466620
 30
0.0
 11
0.950000
 21
-3.492500
 31
0.0
  0
LINE
  8
Dim-PT
 10
0.950000
 20
-3.492500
 30
0.0
 11
1.046590
 21
-3.518380
 31
0.0
  0
LINE
  8
Dim-PT
 10
-0.250000
 20
-3.492500
 30
0.0
 11
2.540000
 21
-3.492500
 31
0.0
  0
LINE
  8
Dim-PT
 10
-2.379550
 20
-3.219350
 30
0.0
 11
-2.379550
 21
-3.325830
 31
0.0
  0
LINE
  8
Dim-PT
 10
-2.379550
 20
-3.325830
 30
0.0
 11
-2.370290
 21
-3.381390
 31
0.0
  0
LINE
  8
Dim-PT
 10
-2.370290
 20
-3.381390
 30
0.0
 11
-2.361030
 21
-3.409170
 31
0.0
  0
LINE
  8
Dim-PT
 10
-2.361030
 20
-3.409170
 30
0.0
 11
-2.340200
 21
-3.436940
 31
0.0
  0
LINE
  8
Dim-PT
 10
-2.340200
 20
-3.436940
 30
0.0
 11
-2.321680
 21
-3.450830
 31
0.0
  0
LINE
  8
Dim-PT
 10
-2.321680
 20
-3.450830
 30
0.0
 11
-2.284640
 21
-3.450830
 31
0.0
  0
LINE
  8
Dim-PT
 10
-2.284640
 20
-3.450830
 30
0.0
 11
-2.268440
 21
-3.436940
 31
0.0
  0
LINE
  8
Dim-PT
 10
-2.268440
 20
-3.436940
 30
0.0
 11
-2.247600
 21
-3.409170
 31
0.0
  0
LINE
  8
Dim-PT
 10
-2.247600
 20
-3.409170
 30
0.0
 11
-2.238340
 21
-3.381390
 31
0.0
  0
LINE
  8
Dim-PT
 10
-2.238340
 20
-3.381390
 30
0.0
 11
-2.229080
 21
-3.325830
 31
0.0
  0
LINE
  8
Dim-PT
 10
-2.229080
 20
-3.325830
 30
0.0
 11
-2.229080
 21
-3.219350
 31
0.0
  0
LINE
  8
Dim-PT
 10
-2.229080
 20
-3.219350
 30
0.0
 11
-2.238340
 21
-3.163800
 31
0.0
  0
LINE
  8
Dim-PT
 10
-2.238340
 20
-3.163800
 30
0.0
 11
-2.247600
 21
-3.136020
 31
0.0
  0
LINE
  8
Dim-PT
 10
-2.247600
 20
-3.136020
 30
0.0
 11
-2.268440
 21
-3.108240
 31
0.0
  0
LINE
  8
Dim-PT
 10
-2.268440
 20
-3.108240
 30
0.0
 11
-2.284640
 21
-3.094350
 31
0.0
  0
LINE
  8
Dim-PT
 10
-2.284640
 20
-3.094350
 30
0.0
 11
-2.321680
 21
-3.094350
 31
0.0
  0
LINE
  8
Dim-PT
 10
-2.321680
 20
-3.094350
 30
0.0
 11
-2.340200
 21
-3.108240
 31
0.0
  0
LINE
  8
Dim-PT
 10
-2.340200
 20
-3.108240
 30
0.0
 11
-2.361030
 21
-3.136020
 31
0.0
  0
LINE
  8
Dim-PT
 10
-2.361030
 20
-3.136020
 30
0.0
 11
-2.370290
 21
-3.163800
 31
0.0
  0
LINE
  8
Dim-PT
 10
-2.370290
 20
-3.163800
 30
0.0
 11
-2.379550
 21
-3.219350
 31
0.0
  0
LINE
  8
Dim-PT
 10
-2.104080
 20
-3.441570
 30
0.0
 11
-2.108710
 21
-3.450830
 31
0.0
  0
LINE
  8
Dim-PT
 10
-2.108710
 20
-3.450830
 30
0.0
 11
-2.120290
 21
-3.450830
 31
0.0
  0
LINE
  8
Dim-PT
 10
-2.120290
 20
-3.450830
 30
0.0
 11
-2.124920
 21
-3.441570
 31
0.0
  0
LINE
  8
Dim-PT
 10
-2.124920
 20
-3.441570
 30
0.0
 11
-2.124920
 21
-3.418430
 31
0.0
  0
LINE
  8
Dim-PT
 10
-2.124920
 20
-3.418430
 30
0.0
 11
-2.120290
 21
-3.409170
 31
0.0
  0
LINE
  8
Dim-PT
 10
-2.120290
 20
-3.409170
 30
0.0
 11
-2.108710
 21
-3.409170
 31
0.0
  0
LINE
  8
Dim-PT
 10
-2.108710
 20
-3.409170
 30
0.0
 11
-2.104080
 21
-3.418430
 31
0.0
  0
LINE
  8
Dim-PT
 10
-2.104080
 20
-3.418430
 30
0.0
 11
-2.104080
 21
-3.441570
 31
0.0
  0
LINE
  8
Dim-PT
 10
-1.701310
 20
-3.247130
 30
0.0
 11
-1.724450
 21
-3.270280
 31
0.0
  0
LINE
  8
Dim-PT
 10
-1.724450
 20
-3.270280
 30
0.0
 11
-1.770750
 21
-3.284170
 31
0.0
  0
LINE
  8
Dim-PT
 10
-1.770750
 20
-3.284170
 30
0.0
 11
-1.814730
 21
-3.284170
 31
0.0
  0
LINE
  8
Dim-PT
 10
-1.814730
 20
-3.284170
 30
0.0
 11
-1.861030
 21
-3.270280
 31
0.0
  0
LINE
  8
Dim-PT
 10
-1.861030
 20
-3.270280
 30
0.0
 11
-1.881860
 21
-3.261020
 31
0.0
  0
LINE
  8
Dim-PT
 10
-1.881860
 20
-3.261020
 30
0.0
 11
-1.893440
 21
-3.233240
 31
0.0
  0
LINE
  8
Dim-PT
 10
-1.893440
 20
-3.233240
 30
0.0
 11
-1.893440
 21
-3.177690
 31
0.0
  0
LINE
  8
Dim-PT
 10
-1.893440
 20
-3.177690
 30
0.0
 11
-1.881860
 21
-3.136020
 31
0.0
  0
LINE
  8
Dim-PT
 10
-1.881860
 20
-3.136020
 30
0.0
 11
-1.849450
 21
-3.108240
 31
0.0
  0
LINE
  8
Dim-PT
 10
-1.849450
 20
-3.108240
 30
0.0
 11
-1.814730
 21
-3.094350
 31
0.0
  0
LINE
  8
Dim-PT
 10
-1.814730
 20
-3.094350
 30
0.0
 11
-1.770750
 21
-3.094350
 31
0.0
  0
LINE
  8
Dim-PT
 10
-1.770750
 20
-3.094350
 30
0.0
 11
-1.733710
 21
-3.108240
 31
0.0
  0
LINE
  8
Dim-PT
 10
-1.733710
 20
-3.108240
 30
0.0
 11
-1.712880
 21
-3.136020
 31
0.0
  0
LINE
  8
Dim-PT
 10
-1.712880
 20
-3.136020
 30
0.0
 11
-1.701310
 21
-3.177690
 31
0.0
  0
LINE
  8
Dim-PT
 10
-1.701310
 20
-3.177690
 30
0.0
 11
-1.701310
 21
-3.339720
 31
0.0
  0
LINE
  8
Dim-PT
 10
-1.701310
 20
-3.339720
 30
0.0
 11
-1.712880
 21
-3.381390
 31
0.0
  0
LINE
  8
Dim-PT
 10
-1.712880
 20
-3.381390
 30
0.0
 11
-1.724450
 21
-3.409170
 31
0.0
  0
LINE
  8
Dim-PT
 10
-1.724450
 20
-3.409170
 30
0.0
 11
-1.747600
 21
-3.436940
 31
0.0
  0
LINE
  8
Dim-PT
 10
-1.747600
 20
-3.436940
 30
0.0
 11
-1.780010
 21
-3.450830
 31
0.0
  0
LINE
  8
Dim-PT
 10
-1.780010
 20
-3.450830
 30
0.0
 11
-1.814730
 21
-3.450830
 31
0.0
  0
LINE
  8
Dim-PT
 10
-1.814730
 20
-3.450830
 30
0.0
 11
-1.849450
 21
-3.436940
 31
0.0
  0
LINE
  8
Dim-PT
 10
-1.849450
 20
-3.436940
 30
0.0
 11
-1.881860
 21
-3.409170
 31
0.0
  0
LINE
  8
Dim-PT
 10
-1.474450
 20
-3.094350
 30
0.0
 11
-1.643440
 21
-3.094350
 31
0.0
  0
LINE
  8
Dim-PT
 10
-1.643440
 20
-3.094350
 30
0.0
 11
-1.643440
 21
-3.261020
 31
0.0
  0
LINE
  8
Dim-PT
 10
-1.643440
 20
-3.261020
 30
0.0
 11
-1.594820
 21
-3.233240
 31
0.0
  0
LINE
  8
Dim-PT
 10
-1.594820
 20
-3.233240
 30
0.0
 11
-1.548530
 21
-3.233240
 31
0.0
  0
LINE
  8
Dim-PT
 10
-1.548530
 20
-3.233240
 30
0.0
 11
-1.511490
 21
-3.247130
 31
0.0
  0
LINE
  8
Dim-PT
 10
-1.511490
 20
-3.247130
 30
0.0
 11
-1.488340
 21
-3.270280
 31
0.0
  0
LINE
  8
Dim-PT
 10
-1.488340
 20
-3.270280
 30
0.0
 11
-1.462880
 21
-3.311940
 31
0.0
  0
LINE
  8
Dim-PT
 10
-1.462880
 20
-3.311940
 30
0.0
 11
-1.462880
 21
-3.367500
 31
0.0
  0
LINE
  8
Dim-PT
 10
-1.462880
 20
-3.367500
 30
0.0
 11
-1.488340
 21
-3.409170
 31
0.0
  0
LINE
  8
Dim-PT
 10
-1.488340
 20
-3.409170
 30
0.0
 11
-1.523070
 21
-3.436940
 31
0.0
  0
LINE
  8
Dim-PT
 10
-1.523070
 20
-3.436940
 30
0.0
 11
-1.560100
 21
-3.450830
 31
0.0
  0
LINE
  8
Dim-PT
 10
-1.560100
 20
-3.450830
 30
0.0
 11
-1.583250
 21
-3.450830
 31
0.0
  0
LINE
  8
Dim-PT
 10
-1.583250
 20
-3.450830
 30
0.0
 11
-1.631860
 21
-3.423060
 31
0.0
  0
LINE
  8
Dim-PT
 10
-1.631860
 20
-3.423060
 30
0.0
 11
-1.655010
 21
-3.395280
 31
0.0
  0
LINE
  8
Dim-PT
 10
0.000000
 20
-0.100000
 30
0.0
 11
0.000000
 21
-3.592500
 31
0.0
  0
LINE
  8
Dim-PT
 10
-0.950000
 20
-1.150000
 30
0.0
 11
-0.950000
 21
-3.592500
 31
0.0
  0
LINE
  8
Dim-PT
 10
0.096590
 20
-3.466620
 30
0.0
 11
0.000000
 21
-3.492500
 31
0.0
  0
LINE
  8
Dim-PT
 10
0.000000
 20
-3.492500
 30
0.0
 11
0.096590
 21
-3.518380
 31
0.0
  0
LINE
  8
Dim-PT
 10
-1.046590
 20
-3.518380
 30
0.0
 11
-0.950000
 21
-3.492500
 31
0.0
  0
LINE
  8
Dim-PT
 10
-0.950000
 20
-3.492500
 30
0.0
 11
-1.046590
 21
-3.466620
 31
0.0
  0
LINE
  8
Dim-PT
 10
0.250000
 20
-3.492500
 30
0.0
 11
-2.540000
 21
-3.492500
 31
0.0
  0
LINE
  8
CM-A
 10
-1.450000
 20
0.900000
 30
0.0
 11
1.450000
 21
0.900000
 31
0.0
  0
LINE
  8
CM-A
 10
1.450000
 20
0.900000
 30
0.0
 11
1.450000
 21
-0.900000
 31
0.0
  0
LINE
  8
CM-A
 10
1.450000
 20
-0.900000
 30
0.0
 11
-1.450000
 21
-0.900000
 31
0.0
  0
LINE
  8
CM-A
 10
-1.450000
 20
-0.900000
 30
0.0
 11
-1.450000
 21
0.900000
 31
0.0
  0
LINE
  8
CM-A
 10
0.740000
 20
-1.200000
 30
0.0
 11
1.160000
 21
-1.200000
 31
0.0
  0
LINE
  8
CM-A
 10
1.160000
 20
-1.200000
 30
0.0
 11
1.160000
 21
-0.800000
 31
0.0
  0
LINE
  8
CM-A
 10
1.160000
 20
-0.800000
 30
0.0
 11
0.740000
 21
-0.800000
 31
0.0
  0
LINE
  8
CM-A
 10
0.740000
 20
-0.800000
 30
0.0
 11
0.740000
 21
-1.200000
 31
0.0
  0
LINE
  8
CM-A
 10
-0.740000
 20
-1.200000
 30
0.0
 11
-1.160000
 21
-1.200000
 31
0.0
  0
LINE
  8
CM-A
 10
-1.160000
 20
-1.200000
 30
0.0
 11
-1.160000
 21
-0.800000
 31
0.0
  0
LINE
  8
CM-A
 10
-1.160000
 20
-0.800000
 30
0.0
 11
-0.740000
 21
-0.800000
 31
0.0
  0
LINE
  8
CM-A
 10
-0.740000
 20
-0.800000
 30
0.0
 11
-0.740000
 21
-1.200000
 31
0.0
  0
LINE
  8
CM-A
 10
0.210000
 20
1.200000
 30
0.0
 11
-0.210000
 21
1.200000
 31
0.0
  0
LINE
  8
CM-A
 10
-0.210000
 20
1.200000
 30
0.0
 11
-0.210000
 21
0.800000
 31
0.0
  0
LINE
  8
CM-A
 10
-0.210000
 20
0.800000
 30
0.0
 11
0.210000
 21
0.800000
 31
0.0
  0
LINE
  8
CM-A
 10
0.210000
 20
0.800000
 30
0.0
 11
0.210000
 21
1.200000
 31
0.0
  0
ARC
  8
PT
 10
-0.625000
 20
-1.425000
 30
0.0
 40
0.075000
 50
-90.000000
 51
0.000000
  0
LINE
  8
PT
 10
-0.625000
 20
-1.500000
 30
0.0
 11
-1.275000
 21
-1.500000
 31
0.0
  0
ARC
  8
PT
 10
-1.275000
 20
-1.425000
 30
0.0
 40
0.075000
 50
180.000000
 51
-90.000000
  0
LINE
  8
PT
 10
-1.350000
 20
-1.425000
 30
0.0
 11
-1.350000
 21
-0.675000
 31
0.0
  0
ARC
  8
PT
 10
-1.275000
 20
-0.675000
 30
0.0
 40
0.075000
 50
90.000000
 51
180.000000
  0
LINE
  8
PT
 10
-1.275000
 20
-0.600000
 30
0.0
 11
-0.625000
 21
-0.600000
 31
0.0
  0
ARC
  8
PT
 10
-0.625000
 20
-0.675000
 30
0.0
 40
0.075000
 50
0.000000
 51
90.000000
  0
LINE
  8
PT
 10
-0.550000
 20
-0.675000
 30
0.0
 11
-0.550000
 21
-1.425000
 31
0.0
  0
ARC
  8
PT
 10
1.275000
 20
-1.425000
 30
0.0
 40
0.075000
 50
-90.000000
 51
0.000000
  0
LINE
  8
PT
 10
1.275000
 20
-1.500000
 30
0.0
 11
0.625000
 21
-1.500000
 31
0.0
  0
ARC
  8
PT
 10
0.625000
 20
-1.425000
 30
0.0
 40
0.075000
 50
180.000000
 51
-90.000000
  0
LINE
  8
PT
 10
0.550000
 20
-1.425000
 30
0.0
 11
0.550000
 21
-0.675000
 31
0.0
  0
ARC
  8
PT
 10
0.625000
 20
-0.675000
 30
0.0
 40
0.075000
 50
90.000000
 51
180.000000
  0
LINE
  8
PT
 10
0.625000
 20
-0.600000
 30
0.0
 11
1.275000
 21
-0.600000
 31
0.0
  0
ARC
  8
PT
 10
1.275000
 20
-0.675000
 30
0.0
 40
0.075000
 50
0.000000
 51
90.000000
  0
LINE
  8
PT
 10
1.350000
 20
-0.675000
 30
0.0
 11
1.350000
 21
-1.425000
 31
0.0
  0
ARC
  8
PT
 10
0.325000
 20
0.675000
 30
0.0
 40
0.075000
 50
-90.000000
 51
0.000000
  0
LINE
  8
PT
 10
0.325000
 20
0.600000
 30
0.0
 11
-0.325000
 21
0.600000
 31
0.0
  0
ARC
  8
PT
 10
-0.325000
 20
0.675000
 30
0.0
 40
0.075000
 50
180.000000
 51
-90.000000
  0
LINE
  8
PT
 10
-0.400000
 20
0.675000
 30
0.0
 11
-0.400000
 21
1.425000
 31
0.0
  0
ARC
  8
PT
 10
-0.325000
 20
1.425000
 30
0.0
 40
0.075000
 50
90.000000
 51
180.000000
  0
LINE
  8
PT
 10
-0.325000
 20
1.500000
 30
0.0
 11
0.325000
 21
1.500000
 31
0.0
  0
ARC
  8
PT
 10
0.325000
 20
1.425000
 30
0.0
 40
0.075000
 50
0.000000
 51
90.000000
  0
LINE
  8
PT
 10
0.400000
 20
1.425000
 30
0.0
 11
0.400000
 21
0.675000
 31
0.0
  0
ENDSEC
  0
EOF
