G04 #@! TF.GenerationSoftware,KiCad,Pcbnew,7.0.1*
G04 #@! TF.CreationDate,2023-03-26T00:44:15-07:00*
G04 #@! TF.ProjectId,corne-wireless,636f726e-652d-4776-9972-656c6573732e,3.0.1*
G04 #@! TF.SameCoordinates,Original*
G04 #@! TF.FileFunction,Soldermask,Bot*
G04 #@! TF.FilePolarity,Negative*
%FSLAX46Y46*%
G04 Gerber Fmt 4.6, Leading zero omitted, Abs format (unit mm)*
G04 Created by KiCad (PCBNEW 7.0.1) date 2023-03-26 00:44:15*
%MOMM*%
%LPD*%
G01*
G04 APERTURE LIST*
G04 Aperture macros list*
%AMRotRect*
0 Rectangle, with rotation*
0 The origin of the aperture is its center*
0 $1 length*
0 $2 width*
0 $3 Rotation angle, in degrees counterclockwise*
0 Add horizontal line*
21,1,$1,$2,0,0,$3*%
G04 Aperture macros list end*
%ADD10C,2.000000*%
%ADD11C,1.900000*%
%ADD12C,3.000000*%
%ADD13C,4.100000*%
%ADD14R,2.550000X2.500000*%
%ADD15RotRect,2.550000X2.500000X165.000000*%
%ADD16RotRect,2.550000X2.500000X240.000000*%
%ADD17RotRect,2.550000X2.500000X120.000000*%
%ADD18RotRect,2.550000X2.500000X195.000000*%
%ADD19C,4.300000*%
%ADD20C,2.200000*%
%ADD21C,1.524000*%
%ADD22C,0.300000*%
%ADD23C,0.900000*%
%ADD24R,1.000000X1.400000*%
G04 APERTURE END LIST*
D10*
X142424500Y-69781000D03*
X142424500Y-63281000D03*
D11*
X34027500Y-35780000D03*
D12*
X35297500Y-33240000D03*
D13*
X39107500Y-35780000D03*
D12*
X41647500Y-30700000D03*
D11*
X44187500Y-35780000D03*
D14*
X32022500Y-33240000D03*
X44949500Y-30700000D03*
D11*
X53027500Y-31030000D03*
D12*
X54297500Y-28490000D03*
D13*
X58107500Y-31030000D03*
D12*
X60647500Y-25950000D03*
D11*
X63187500Y-31030000D03*
D14*
X51022500Y-28490000D03*
X63949500Y-25950000D03*
D11*
X72027500Y-28655000D03*
D12*
X73297500Y-26115000D03*
D13*
X77107500Y-28655000D03*
D12*
X79647500Y-23575000D03*
D11*
X82187500Y-28655000D03*
D14*
X70022500Y-26115000D03*
X82949500Y-23575000D03*
D11*
X91027500Y-31030000D03*
D12*
X92297500Y-28490000D03*
D13*
X96107500Y-31030000D03*
D12*
X98647500Y-25950000D03*
D11*
X101187500Y-31030000D03*
D14*
X89022500Y-28490000D03*
X101949500Y-25950000D03*
D11*
X15027500Y-54780000D03*
D12*
X16297500Y-52240000D03*
D13*
X20107500Y-54780000D03*
D12*
X22647500Y-49700000D03*
D11*
X25187500Y-54780000D03*
D14*
X13022500Y-52240000D03*
X25949500Y-49700000D03*
D11*
X34027500Y-54780000D03*
D12*
X35297500Y-52240000D03*
D13*
X39107500Y-54780000D03*
D12*
X41647500Y-49700000D03*
D11*
X44187500Y-54780000D03*
D14*
X32022500Y-52240000D03*
X44949500Y-49700000D03*
D11*
X53027500Y-50030000D03*
D12*
X54297500Y-47490000D03*
D13*
X58107500Y-50030000D03*
D12*
X60647500Y-44950000D03*
D11*
X63187500Y-50030000D03*
D14*
X51022500Y-47490000D03*
X63949500Y-44950000D03*
D11*
X72027500Y-47655000D03*
D12*
X73297500Y-45115000D03*
D13*
X77107500Y-47655000D03*
D12*
X79647500Y-42575000D03*
D11*
X82187500Y-47655000D03*
D14*
X70022500Y-45115000D03*
X82949500Y-42575000D03*
D11*
X91027500Y-50030000D03*
D12*
X92297500Y-47490000D03*
D13*
X96107500Y-50030000D03*
D12*
X98647500Y-44950000D03*
D11*
X101187500Y-50030000D03*
D14*
X89022500Y-47490000D03*
X101949500Y-44950000D03*
D11*
X110027500Y-52405000D03*
D12*
X111297500Y-49865000D03*
D13*
X115107500Y-52405000D03*
D12*
X117647500Y-47325000D03*
D11*
X120187500Y-52405000D03*
D14*
X108022500Y-49865000D03*
X120949500Y-47325000D03*
D11*
X15027500Y-73780000D03*
D12*
X16297500Y-71240000D03*
D13*
X20107500Y-73780000D03*
D12*
X22647500Y-68700000D03*
D11*
X25187500Y-73780000D03*
D14*
X13022500Y-71240000D03*
X25949500Y-68700000D03*
D11*
X34027500Y-73780000D03*
D12*
X35297500Y-71240000D03*
D13*
X39107500Y-73780000D03*
D12*
X41647500Y-68700000D03*
D11*
X44187500Y-73780000D03*
D14*
X32022500Y-71240000D03*
X44949500Y-68700000D03*
D11*
X53027500Y-69030000D03*
D12*
X54297500Y-66490000D03*
D13*
X58107500Y-69030000D03*
D12*
X60647500Y-63950000D03*
D11*
X63187500Y-69030000D03*
D14*
X51022500Y-66490000D03*
X63949500Y-63950000D03*
D11*
X72027500Y-66655000D03*
D12*
X73297500Y-64115000D03*
D13*
X77107500Y-66655000D03*
D12*
X79647500Y-61575000D03*
D11*
X82187500Y-66655000D03*
D14*
X70022500Y-64115000D03*
X82949500Y-61575000D03*
D11*
X91027500Y-69030000D03*
D12*
X92297500Y-66490000D03*
D13*
X96107500Y-69030000D03*
D12*
X98647500Y-63950000D03*
D11*
X101187500Y-69030000D03*
D14*
X89022500Y-66490000D03*
X101949500Y-63950000D03*
D11*
X110027500Y-71405000D03*
D12*
X111297500Y-68865000D03*
D13*
X115107500Y-71405000D03*
D12*
X117647500Y-66325000D03*
D11*
X120187500Y-71405000D03*
D14*
X108022500Y-68865000D03*
X120949500Y-66325000D03*
D11*
X81527500Y-88655000D03*
D12*
X82797500Y-86115000D03*
D13*
X86607500Y-88655000D03*
D12*
X89147500Y-83575000D03*
D11*
X91687500Y-88655000D03*
D14*
X79522500Y-86115000D03*
X92449500Y-83575000D03*
D11*
X102700597Y-90090199D03*
D12*
X104584723Y-87965448D03*
D13*
X107607500Y-91405000D03*
D12*
X111375752Y-87155497D03*
D11*
X112514403Y-92719801D03*
D15*
X101421316Y-87117815D03*
X114565239Y-88010118D03*
D11*
X127317500Y-99554409D03*
D12*
X125752795Y-97184557D03*
D13*
X129857500Y-95155000D03*
D12*
X126728091Y-90415295D03*
D11*
X132397500Y-90755591D03*
D16*
X124115295Y-100020790D03*
X128379091Y-87555680D03*
D11*
X164324500Y-90750591D03*
D12*
X167159205Y-90580443D03*
D13*
X166864500Y-95150000D03*
D12*
X172533909Y-94809705D03*
D11*
X169404500Y-99549409D03*
D17*
X165521705Y-87744210D03*
X174184909Y-97669320D03*
D10*
X154304500Y-69772000D03*
X154304500Y-63272000D03*
D11*
X214534500Y-66650000D03*
D12*
X215804500Y-64110000D03*
D13*
X219614500Y-66650000D03*
D12*
X222154500Y-61570000D03*
D11*
X224694500Y-66650000D03*
D14*
X212529500Y-64110000D03*
X225456500Y-61570000D03*
D11*
X195534500Y-69025000D03*
D12*
X196804500Y-66485000D03*
D13*
X200614500Y-69025000D03*
D12*
X203154500Y-63945000D03*
D11*
X205694500Y-69025000D03*
D14*
X193529500Y-66485000D03*
X206456500Y-63945000D03*
D11*
X176534500Y-71400000D03*
D12*
X177804500Y-68860000D03*
D13*
X181614500Y-71400000D03*
D12*
X184154500Y-66320000D03*
D11*
X186694500Y-71400000D03*
D14*
X174529500Y-68860000D03*
X187456500Y-66320000D03*
D11*
X205034500Y-88650000D03*
D12*
X206304500Y-86110000D03*
D13*
X210114500Y-88650000D03*
D12*
X212654500Y-83570000D03*
D11*
X215194500Y-88650000D03*
D14*
X203029500Y-86110000D03*
X215956500Y-83570000D03*
D11*
X184207597Y-92714801D03*
D12*
X184776922Y-89932649D03*
D13*
X189114500Y-91400000D03*
D12*
X190253151Y-85835696D03*
D11*
X194021403Y-90085199D03*
D18*
X181613515Y-90780281D03*
X193442638Y-84981076D03*
D11*
X214534500Y-28650000D03*
D12*
X215804500Y-26110000D03*
D13*
X219614500Y-28650000D03*
D12*
X222154500Y-23570000D03*
D11*
X224694500Y-28650000D03*
D14*
X212529500Y-26110000D03*
X225456500Y-23570000D03*
D11*
X195534500Y-31025000D03*
D12*
X196804500Y-28485000D03*
D13*
X200614500Y-31025000D03*
D12*
X203154500Y-25945000D03*
D11*
X205694500Y-31025000D03*
D14*
X193529500Y-28485000D03*
X206456500Y-25945000D03*
D11*
X271534500Y-54775000D03*
D12*
X272804500Y-52235000D03*
D13*
X276614500Y-54775000D03*
D12*
X279154500Y-49695000D03*
D11*
X281694500Y-54775000D03*
D14*
X269529500Y-52235000D03*
X282456500Y-49695000D03*
D11*
X233534500Y-31025000D03*
D12*
X234804500Y-28485000D03*
D13*
X238614500Y-31025000D03*
D12*
X241154500Y-25945000D03*
D11*
X243694500Y-31025000D03*
D14*
X231529500Y-28485000D03*
X244456500Y-25945000D03*
D11*
X252534500Y-54775000D03*
D12*
X253804500Y-52235000D03*
D13*
X257614500Y-54775000D03*
D12*
X260154500Y-49695000D03*
D11*
X262694500Y-54775000D03*
D14*
X250529500Y-52235000D03*
X263456500Y-49695000D03*
D11*
X252534500Y-73775000D03*
D12*
X253804500Y-71235000D03*
D13*
X257614500Y-73775000D03*
D12*
X260154500Y-68695000D03*
D11*
X262694500Y-73775000D03*
D14*
X250529500Y-71235000D03*
X263456500Y-68695000D03*
D11*
X233534500Y-69025000D03*
D12*
X234804500Y-66485000D03*
D13*
X238614500Y-69025000D03*
D12*
X241154500Y-63945000D03*
D11*
X243694500Y-69025000D03*
D14*
X231529500Y-66485000D03*
X244456500Y-63945000D03*
D11*
X271534500Y-35775000D03*
D12*
X272804500Y-33235000D03*
D13*
X276614500Y-35775000D03*
D12*
X279154500Y-30695000D03*
D11*
X281694500Y-35775000D03*
D14*
X269529500Y-33235000D03*
X282456500Y-30695000D03*
D11*
X252534500Y-35775000D03*
D12*
X253804500Y-33235000D03*
D13*
X257614500Y-35775000D03*
D12*
X260154500Y-30695000D03*
D11*
X262694500Y-35775000D03*
D14*
X250529500Y-33235000D03*
X263456500Y-30695000D03*
D11*
X233534500Y-50025000D03*
D12*
X234804500Y-47485000D03*
D13*
X238614500Y-50025000D03*
D12*
X241154500Y-44945000D03*
D11*
X243694500Y-50025000D03*
D14*
X231529500Y-47485000D03*
X244456500Y-44945000D03*
D11*
X214534500Y-47650000D03*
D12*
X215804500Y-45110000D03*
D13*
X219614500Y-47650000D03*
D12*
X222154500Y-42570000D03*
D11*
X224694500Y-47650000D03*
D14*
X212529500Y-45110000D03*
X225456500Y-42570000D03*
D11*
X195534500Y-50025000D03*
D12*
X196804500Y-47485000D03*
D13*
X200614500Y-50025000D03*
D12*
X203154500Y-44945000D03*
D11*
X205694500Y-50025000D03*
D14*
X193529500Y-47485000D03*
X206456500Y-44945000D03*
D11*
X176534500Y-52400000D03*
D12*
X177804500Y-49860000D03*
D13*
X181614500Y-52400000D03*
D12*
X184154500Y-47320000D03*
D11*
X186694500Y-52400000D03*
D14*
X174529500Y-49860000D03*
X187456500Y-47320000D03*
D11*
X271534500Y-73775000D03*
D12*
X272804500Y-71235000D03*
D13*
X276614500Y-73775000D03*
D12*
X279154500Y-68695000D03*
D11*
X281694500Y-73775000D03*
D14*
X269529500Y-71235000D03*
X282456500Y-68695000D03*
D11*
X15027500Y-35780000D03*
D12*
X16297500Y-33240000D03*
D13*
X20107500Y-35780000D03*
D12*
X22647500Y-30700000D03*
D11*
X25187500Y-35780000D03*
D14*
X13022500Y-33240000D03*
X25949500Y-30700000D03*
D19*
X105575500Y-41765500D03*
X72764500Y-81520500D03*
X119330500Y-89135000D03*
D20*
X127869500Y-74254000D03*
X142301500Y-82775000D03*
D19*
X177389500Y-89145000D03*
X223955500Y-81530500D03*
X267099500Y-45265500D03*
X191144500Y-41775500D03*
D11*
X110027500Y-33405000D03*
D12*
X111297500Y-30865000D03*
D13*
X115107500Y-33405000D03*
D12*
X117647500Y-28325000D03*
D11*
X120187500Y-33405000D03*
D14*
X108022500Y-30865000D03*
X120949500Y-28325000D03*
D11*
X176527500Y-33405000D03*
D12*
X177797500Y-30865000D03*
D13*
X181607500Y-33405000D03*
D12*
X184147500Y-28325000D03*
D11*
X186687500Y-33405000D03*
D14*
X174522500Y-30865000D03*
X187449500Y-28325000D03*
D19*
X29607500Y-64280000D03*
D21*
X142423900Y-31942000D03*
X142423900Y-34482000D03*
X142423900Y-37022000D03*
X142423900Y-39562000D03*
X142423900Y-42102000D03*
X142423900Y-44642000D03*
X142423900Y-47182000D03*
X142423900Y-49722000D03*
X142423900Y-52262000D03*
X142423900Y-54802000D03*
X142423900Y-57342000D03*
X142423900Y-59882000D03*
X127203900Y-59882000D03*
X127203900Y-57342000D03*
X127203900Y-54802000D03*
X127203900Y-52262000D03*
X127203900Y-49722000D03*
X127203900Y-47182000D03*
X127203900Y-44642000D03*
X127203900Y-42102000D03*
X127203900Y-39562000D03*
X127203900Y-37022000D03*
X127203900Y-34482000D03*
X127203900Y-31942000D03*
X169598900Y-31912000D03*
X169598900Y-34452000D03*
X169598900Y-36992000D03*
X169598900Y-39532000D03*
X169598900Y-42072000D03*
X169598900Y-44612000D03*
X169598900Y-47152000D03*
X169598900Y-49692000D03*
X169598900Y-52232000D03*
X169598900Y-54772000D03*
X169598900Y-57312000D03*
X169598900Y-59852000D03*
X154378900Y-59852000D03*
X154378900Y-57312000D03*
X154378900Y-54772000D03*
X154378900Y-52232000D03*
X154378900Y-49692000D03*
X154378900Y-47152000D03*
X154378900Y-44612000D03*
X154378900Y-42072000D03*
X154378900Y-39532000D03*
X154378900Y-36992000D03*
X154378900Y-34452000D03*
X154378900Y-31912000D03*
D19*
X29607500Y-45280000D03*
D22*
X55861750Y-21869000D03*
X56455500Y-21869000D03*
X57049250Y-21869000D03*
X57643000Y-21869000D03*
X58236750Y-21869000D03*
X58830500Y-21869000D03*
X59424250Y-21869000D03*
X60018000Y-21869000D03*
X60611750Y-21869000D03*
X93832500Y-21873000D03*
X94426250Y-21873000D03*
X95020000Y-21873000D03*
X95613750Y-21873000D03*
X96207500Y-21873000D03*
X96801250Y-21873000D03*
X97395000Y-21873000D03*
X97988750Y-21873000D03*
X98582500Y-21873000D03*
X17787500Y-83176000D03*
X18381250Y-83176000D03*
X18975000Y-83176000D03*
X19568750Y-83176000D03*
X20162500Y-83176000D03*
X20756250Y-83176000D03*
X21350000Y-83176000D03*
X21943750Y-83176000D03*
X22537500Y-83176000D03*
X55748500Y-83178000D03*
X56342250Y-83178000D03*
X56936000Y-83178000D03*
X57529750Y-83178000D03*
X58123500Y-83178000D03*
X58717250Y-83178000D03*
X59311000Y-83178000D03*
X59904750Y-83178000D03*
X60498500Y-83178000D03*
D23*
X143107500Y-74780000D03*
X143107500Y-77780000D03*
X154107500Y-74780000D03*
X154107500Y-77780000D03*
D24*
X27734500Y-37551875D03*
X27734500Y-34001875D03*
X46734500Y-37555000D03*
X46734500Y-34005000D03*
X65707500Y-32555000D03*
X65707500Y-29005000D03*
X84707500Y-30430000D03*
X84707500Y-26880000D03*
X103707500Y-32805000D03*
X103707500Y-29255000D03*
X122707500Y-35180000D03*
X122707500Y-31630000D03*
X27734500Y-56551875D03*
X27734500Y-53001875D03*
X46734500Y-56555000D03*
X46734500Y-53005000D03*
X65707500Y-51805000D03*
X65707500Y-48255000D03*
X84707500Y-49430000D03*
X84707500Y-45880000D03*
X103707500Y-51805000D03*
X103707500Y-48255000D03*
X122707500Y-54180000D03*
X122707500Y-50630000D03*
X27734500Y-75551875D03*
X27734500Y-72001875D03*
X46734500Y-75555000D03*
X46734500Y-72005000D03*
X65707500Y-70805000D03*
X65707500Y-67255000D03*
X84707500Y-68430000D03*
X84707500Y-64880000D03*
X103707500Y-70805000D03*
X103707500Y-67255000D03*
X122707500Y-73180000D03*
X122707500Y-69630000D03*
X76157500Y-90545000D03*
X76157500Y-86995000D03*
X95164500Y-90540000D03*
X95164500Y-86990000D03*
X98007500Y-90540000D03*
X98007500Y-86990000D03*
X265214500Y-37550000D03*
X265214500Y-34000000D03*
X246214500Y-32800000D03*
X246214500Y-29250000D03*
X227214500Y-30425000D03*
X227214500Y-26875000D03*
X189207500Y-35180000D03*
X189207500Y-31630000D03*
X284214500Y-56400000D03*
X284214500Y-52850000D03*
X265214500Y-56550000D03*
X265214500Y-53000000D03*
X246214500Y-51800000D03*
X246214500Y-48250000D03*
X227214500Y-49425000D03*
X227214500Y-45875000D03*
X208214500Y-51800000D03*
X208214500Y-48250000D03*
X189207500Y-54180000D03*
X189207500Y-50630000D03*
X284214500Y-75550000D03*
X284214500Y-72000000D03*
X265214500Y-75550000D03*
X265214500Y-72000000D03*
X246214500Y-70800000D03*
X246214500Y-67250000D03*
X227214500Y-68425000D03*
X227214500Y-64875000D03*
X208214500Y-70800000D03*
X208214500Y-67250000D03*
X189207500Y-73180000D03*
X189207500Y-69630000D03*
X217714500Y-90410000D03*
X217714500Y-86860000D03*
X199664500Y-90425000D03*
X199664500Y-86875000D03*
X196814500Y-90425000D03*
X196814500Y-86875000D03*
X284214500Y-37550000D03*
X284214500Y-34000000D03*
X208214500Y-32800000D03*
X208214500Y-29250000D03*
D20*
X154418500Y-82785000D03*
D19*
X267099500Y-64265500D03*
D20*
X168850500Y-74264000D03*
D22*
X279030500Y-83183000D03*
X278436750Y-83183000D03*
X277843000Y-83183000D03*
X277249250Y-83183000D03*
X276655500Y-83183000D03*
X276061750Y-83183000D03*
X275468000Y-83183000D03*
X274874250Y-83183000D03*
X274280500Y-83183000D03*
X203112500Y-21885000D03*
X202518750Y-21885000D03*
X201925000Y-21885000D03*
X201331250Y-21885000D03*
X200737500Y-21885000D03*
X200143750Y-21885000D03*
X199550000Y-21885000D03*
X198956250Y-21885000D03*
X198362500Y-21885000D03*
X241024500Y-21870000D03*
X240430750Y-21870000D03*
X239837000Y-21870000D03*
X239243250Y-21870000D03*
X238649500Y-21870000D03*
X238055750Y-21870000D03*
X237462000Y-21870000D03*
X236868250Y-21870000D03*
X236274500Y-21870000D03*
X241116500Y-83193000D03*
X240522750Y-83193000D03*
X239929000Y-83193000D03*
X239335250Y-83193000D03*
X238741500Y-83193000D03*
X238147750Y-83193000D03*
X237554000Y-83193000D03*
X236960250Y-83193000D03*
X236366500Y-83193000D03*
M02*
