G04 #@! TF.GenerationSoftware,KiCad,Pcbnew,7.0.1*
G04 #@! TF.CreationDate,2023-03-26T00:44:14-07:00*
G04 #@! TF.ProjectId,corne-wireless,636f726e-652d-4776-9972-656c6573732e,3.0.1*
G04 #@! TF.SameCoordinates,Original*
G04 #@! TF.FileFunction,Copper,L1,Top*
G04 #@! TF.FilePolarity,Positive*
%FSLAX46Y46*%
G04 Gerber Fmt 4.6, Leading zero omitted, Abs format (unit mm)*
G04 Created by KiCad (PCBNEW 7.0.1) date 2023-03-26 00:44:14*
%MOMM*%
%LPD*%
G01*
G04 APERTURE LIST*
G04 Aperture macros list*
%AMRoundRect*
0 Rectangle with rounded corners*
0 $1 Rounding radius*
0 $2 $3 $4 $5 $6 $7 $8 $9 X,Y pos of 4 corners*
0 Add a 4 corners polygon primitive as box body*
4,1,4,$2,$3,$4,$5,$6,$7,$8,$9,$2,$3,0*
0 Add four circle primitives for the rounded corners*
1,1,$1+$1,$2,$3*
1,1,$1+$1,$4,$5*
1,1,$1+$1,$6,$7*
1,1,$1+$1,$8,$9*
0 Add four rect primitives between the rounded corners*
20,1,$1+$1,$2,$3,$4,$5,0*
20,1,$1+$1,$4,$5,$6,$7,0*
20,1,$1+$1,$6,$7,$8,$9,0*
20,1,$1+$1,$8,$9,$2,$3,0*%
G04 Aperture macros list end*
G04 #@! TA.AperFunction,ComponentPad*
%ADD10C,2.000000*%
G04 #@! TD*
G04 #@! TA.AperFunction,ComponentPad*
%ADD11C,1.524000*%
G04 #@! TD*
G04 #@! TA.AperFunction,SMDPad,CuDef*
%ADD12RoundRect,0.250000X-0.350000X-0.650000X0.350000X-0.650000X0.350000X0.650000X-0.350000X0.650000X0*%
G04 #@! TD*
G04 #@! TA.AperFunction,SMDPad,CuDef*
%ADD13RoundRect,0.150000X-0.150000X-0.625000X0.150000X-0.625000X0.150000X0.625000X-0.150000X0.625000X0*%
G04 #@! TD*
G04 #@! TA.AperFunction,SMDPad,CuDef*
%ADD14R,1.400000X0.800000*%
G04 #@! TD*
G04 #@! TA.AperFunction,SMDPad,CuDef*
%ADD15R,1.500000X0.700000*%
G04 #@! TD*
G04 #@! TA.AperFunction,SMDPad,CuDef*
%ADD16R,0.800000X1.000000*%
G04 #@! TD*
G04 #@! TA.AperFunction,ViaPad*
%ADD17C,0.600000*%
G04 #@! TD*
G04 #@! TA.AperFunction,Conductor*
%ADD18C,0.250000*%
G04 #@! TD*
G04 #@! TA.AperFunction,Conductor*
%ADD19C,0.508000*%
G04 #@! TD*
G04 #@! TA.AperFunction,Conductor*
%ADD20C,0.381000*%
G04 #@! TD*
G04 #@! TA.AperFunction,Conductor*
%ADD21C,0.500000*%
G04 #@! TD*
G04 #@! TA.AperFunction,Conductor*
%ADD22C,0.254000*%
G04 #@! TD*
G04 APERTURE END LIST*
D10*
X142424500Y-69781000D03*
X142424500Y-63281000D03*
X154304500Y-69772000D03*
X154304500Y-63272000D03*
D11*
X142423900Y-31942000D03*
X142423900Y-34482000D03*
X142423900Y-37022000D03*
X142423900Y-39562000D03*
X142423900Y-42102000D03*
X142423900Y-44642000D03*
X142423900Y-47182000D03*
X142423900Y-49722000D03*
X142423900Y-52262000D03*
X142423900Y-54802000D03*
X142423900Y-57342000D03*
X142423900Y-59882000D03*
X127203900Y-59882000D03*
X127203900Y-57342000D03*
X127203900Y-54802000D03*
X127203900Y-52262000D03*
X127203900Y-49722000D03*
X127203900Y-47182000D03*
X127203900Y-44642000D03*
X127203900Y-42102000D03*
X127203900Y-39562000D03*
X127203900Y-37022000D03*
X127203900Y-34482000D03*
X127203900Y-31942000D03*
X169598900Y-31912000D03*
X169598900Y-34452000D03*
X169598900Y-36992000D03*
X169598900Y-39532000D03*
X169598900Y-42072000D03*
X169598900Y-44612000D03*
X169598900Y-47152000D03*
X169598900Y-49692000D03*
X169598900Y-52232000D03*
X169598900Y-54772000D03*
X169598900Y-57312000D03*
X169598900Y-59852000D03*
X154378900Y-59852000D03*
X154378900Y-57312000D03*
X154378900Y-54772000D03*
X154378900Y-52232000D03*
X154378900Y-49692000D03*
X154378900Y-47152000D03*
X154378900Y-44612000D03*
X154378900Y-42072000D03*
X154378900Y-39532000D03*
X154378900Y-36992000D03*
X154378900Y-34452000D03*
X154378900Y-31912000D03*
D12*
X131497500Y-66230000D03*
X127897500Y-66230000D03*
D13*
X130197500Y-68755000D03*
X129197500Y-68755000D03*
D14*
X132277500Y-74220000D03*
X134877500Y-73270000D03*
X134877500Y-75170000D03*
D13*
X166651500Y-68755000D03*
X167651500Y-68755000D03*
D12*
X165351500Y-66230000D03*
X168951500Y-66230000D03*
D15*
X141347500Y-74030000D03*
X141347500Y-75530000D03*
X141347500Y-78530000D03*
D16*
X144207500Y-72630000D03*
X141997500Y-72630000D03*
X144207500Y-79930000D03*
X141997500Y-79930000D03*
X155217500Y-72630000D03*
X153007500Y-72630000D03*
X155217500Y-79930000D03*
X153007500Y-79930000D03*
D15*
X155867500Y-74030000D03*
X155867500Y-77030000D03*
X155867500Y-78530000D03*
D14*
X162287500Y-73270000D03*
X162287500Y-75170000D03*
X164887500Y-74220000D03*
D17*
X160823500Y-73272000D03*
X167427500Y-71240000D03*
X157192500Y-66160000D03*
X136872500Y-75170000D03*
X137709500Y-37458000D03*
X137709500Y-37458000D03*
X139545500Y-66160000D03*
X131105500Y-69970000D03*
X51107500Y-26505000D03*
X50307500Y-35105000D03*
X123607500Y-54205000D03*
X124607500Y-69005000D03*
X69382500Y-61305000D03*
X69382500Y-68405000D03*
X126493737Y-86382353D03*
X124807500Y-70805000D03*
X13007500Y-50205000D03*
X13007500Y-66705000D03*
X13007500Y-54205000D03*
X13007500Y-69205000D03*
X13007500Y-35205000D03*
X31707500Y-54405000D03*
X32107500Y-69205000D03*
X31964840Y-50194907D03*
X32796949Y-65894449D03*
X32007500Y-35205000D03*
X52577078Y-61174578D03*
X51007500Y-64505000D03*
X51007500Y-45505000D03*
X51007500Y-30505000D03*
X51007500Y-49505000D03*
X70007500Y-43105000D03*
X70007500Y-62105000D03*
X70007500Y-28105000D03*
X70007500Y-47105000D03*
X79507500Y-84305000D03*
X70007500Y-65705000D03*
X70407500Y-59705000D03*
X100007500Y-85205000D03*
X89407500Y-60305000D03*
X89007500Y-68505000D03*
X89007500Y-49505000D03*
X89007500Y-64505000D03*
X89007500Y-45505000D03*
X89007500Y-30505000D03*
X108007500Y-47905000D03*
X122607500Y-99005000D03*
X108007500Y-70805000D03*
X108007500Y-66805000D03*
X108007500Y-51805000D03*
X108007500Y-32805000D03*
X108407504Y-62805000D03*
X171063762Y-31389024D03*
X173357500Y-46265000D03*
X175232500Y-58415010D03*
X175232500Y-62500000D03*
X172537500Y-58715000D03*
X167110558Y-85628058D03*
X269617500Y-54555000D03*
X269607500Y-35205000D03*
X269547500Y-66550000D03*
X269507500Y-69305000D03*
X269592510Y-50205000D03*
X250507500Y-54205000D03*
X250507500Y-69205000D03*
X249997500Y-64100010D03*
X250507500Y-35105000D03*
X250507500Y-50305000D03*
X231607500Y-64505000D03*
X231234449Y-58513051D03*
X231507500Y-45505000D03*
X231607500Y-49505000D03*
X231507500Y-30305000D03*
X212507500Y-47105000D03*
X203087500Y-84335000D03*
X212107500Y-59020000D03*
X212507500Y-62205000D03*
X212557500Y-65985000D03*
X212507500Y-43105000D03*
X212507500Y-28005000D03*
X181187500Y-88895000D03*
X193517500Y-68325000D03*
X193507500Y-45505000D03*
X193137500Y-61875000D03*
X193507500Y-64505000D03*
X193507500Y-49305000D03*
X193507500Y-30405000D03*
X174507500Y-47805000D03*
X174507500Y-66905000D03*
X166887500Y-86675000D03*
X174607500Y-51905000D03*
X174507500Y-32805000D03*
X174417500Y-70675000D03*
X174297500Y-63015000D03*
D18*
X159299500Y-37966000D02*
X159299500Y-66160000D01*
X155687500Y-69772000D02*
X159299500Y-66160000D01*
X154304500Y-69772000D02*
X155687500Y-69772000D01*
X154378900Y-36992000D02*
X158325500Y-36992000D01*
X158325500Y-36992000D02*
X159299500Y-37966000D01*
D19*
X162285500Y-73272000D02*
X162287500Y-73270000D01*
X160823500Y-73272000D02*
X162285500Y-73272000D01*
X168189500Y-70478000D02*
X168189500Y-69716000D01*
X167427500Y-71240000D02*
X168189500Y-70478000D01*
X168189500Y-69716000D02*
X167651500Y-69178000D01*
X167651500Y-69178000D02*
X167651500Y-68755000D01*
X154304500Y-63272000D02*
X157192500Y-66160000D01*
X165903500Y-74288000D02*
X164955500Y-74288000D01*
D18*
X164955500Y-74288000D02*
X164887500Y-74220000D01*
D19*
X166651500Y-73540000D02*
X165903500Y-74288000D01*
X166651500Y-68755000D02*
X166651500Y-73540000D01*
X155867500Y-77030000D02*
X158081500Y-77030000D01*
X158081500Y-77030000D02*
X159941500Y-75170000D01*
X159941500Y-75170000D02*
X162287500Y-75170000D01*
X154378900Y-31912000D02*
X158579500Y-31912000D01*
X158033500Y-74030000D02*
X155867500Y-74030000D01*
X158579500Y-31912000D02*
X160061500Y-33394000D01*
X160061500Y-33394000D02*
X160061500Y-72002000D01*
X160061500Y-72002000D02*
X158033500Y-74030000D01*
X134877500Y-75170000D02*
X136872500Y-75170000D01*
D18*
X137709500Y-37458000D02*
X137709500Y-66480213D01*
X137709500Y-66480213D02*
X141010287Y-69781000D01*
X141010287Y-69781000D02*
X142424500Y-69781000D01*
D19*
X142424500Y-63281000D02*
X139545500Y-66160000D01*
X130197500Y-69062000D02*
X131105500Y-69970000D01*
D20*
X130197500Y-68755000D02*
X130197500Y-69062000D01*
D19*
X130089500Y-70732000D02*
X130089500Y-73644000D01*
X130089500Y-73644000D02*
X130665500Y-74220000D01*
X129197500Y-68755000D02*
X129197500Y-69840000D01*
X129197500Y-69840000D02*
X130089500Y-70732000D01*
X130665500Y-74220000D02*
X132277500Y-74220000D01*
D18*
X129197500Y-68824000D02*
X129327500Y-68954000D01*
D19*
X139229500Y-74030000D02*
X136947500Y-71748000D01*
X136947500Y-71748000D02*
X136947500Y-33902000D01*
X136947500Y-33902000D02*
X134987500Y-31942000D01*
X134987500Y-31942000D02*
X127203900Y-31942000D01*
X141347500Y-74030000D02*
X139237500Y-74030000D01*
X136691500Y-73270000D02*
X138979500Y-75558000D01*
X134877500Y-73270000D02*
X136691500Y-73270000D01*
X139007500Y-75530000D02*
X141347500Y-75530000D01*
D20*
X130197500Y-68755000D02*
X130197500Y-69316000D01*
D19*
X144134500Y-41272600D02*
X144134500Y-61571000D01*
X144134500Y-61571000D02*
X142424500Y-63281000D01*
D18*
X50307500Y-35105000D02*
X50307500Y-27305000D01*
X50307500Y-27305000D02*
X51107500Y-26505000D01*
X124607500Y-55205000D02*
X124607500Y-69005000D01*
X123607500Y-54205000D02*
X124607500Y-55205000D01*
X69382500Y-61305000D02*
X69382500Y-68405000D01*
X124782499Y-70830001D02*
X124807500Y-70805000D01*
X124782499Y-84879999D02*
X124782499Y-70830001D01*
X125984854Y-86082354D02*
X124782499Y-84879999D01*
X126193738Y-86082354D02*
X125984854Y-86082354D01*
X126493737Y-86382353D02*
X126193738Y-86082354D01*
D21*
X169603900Y-36993000D02*
X169603900Y-39533000D01*
D19*
X153414501Y-35214999D02*
X152784500Y-35845000D01*
X154383900Y-34453000D02*
X153621901Y-35214999D01*
X153304500Y-63272000D02*
X154304500Y-63272000D01*
X152784500Y-35845000D02*
X152784500Y-62752000D01*
X153621901Y-35214999D02*
X153414501Y-35214999D01*
X152784500Y-62752000D02*
X153304500Y-63272000D01*
D18*
X13007500Y-57305000D02*
X13007500Y-66705000D01*
X13007500Y-54205000D02*
X13007500Y-57305000D01*
X13007500Y-66705000D02*
X13007500Y-69205000D01*
X13007500Y-35205000D02*
X13007500Y-50205000D01*
X32307500Y-66205000D02*
X32486398Y-66205000D01*
X32264839Y-49894908D02*
X31964840Y-50194907D01*
X32307500Y-66205000D02*
X32307500Y-69005000D01*
X32307500Y-56405000D02*
X32307500Y-66205000D01*
X32496950Y-66194448D02*
X32796949Y-65894449D01*
X32407500Y-49752247D02*
X32264839Y-49894908D01*
X32486398Y-66205000D02*
X32496950Y-66194448D01*
X32007500Y-35205000D02*
X32407500Y-35605000D01*
X31707500Y-55805000D02*
X32307500Y-56405000D01*
X31707500Y-54405000D02*
X31707500Y-55805000D01*
X32307500Y-69005000D02*
X32107500Y-69205000D01*
X32407500Y-35605000D02*
X32407500Y-49752247D01*
X51007500Y-60505000D02*
X51677078Y-61174578D01*
X51007500Y-30505000D02*
X51007500Y-45505000D01*
X52152814Y-61174578D02*
X52577078Y-61174578D01*
X51677078Y-61174578D02*
X52152814Y-61174578D01*
X51007500Y-60505000D02*
X51007500Y-64505000D01*
X51007500Y-49505000D02*
X51007500Y-60505000D01*
X69682488Y-42779988D02*
X69707501Y-42805001D01*
X69682488Y-28430012D02*
X69682488Y-42779988D01*
X70007500Y-28105000D02*
X69682488Y-28430012D01*
X70007500Y-74505000D02*
X79507500Y-84005000D01*
X70007500Y-60005000D02*
X70107501Y-60004999D01*
X70007500Y-65705000D02*
X70007500Y-74505000D01*
X70007500Y-60005000D02*
X70007500Y-62105000D01*
X69707501Y-42805001D02*
X70007500Y-43105000D01*
X70107501Y-60004999D02*
X70407500Y-59705000D01*
X70007500Y-47105000D02*
X70007500Y-60005000D01*
X79507500Y-84005000D02*
X79507500Y-84305000D01*
X89007500Y-62305000D02*
X89007500Y-64505000D01*
X89007500Y-61105000D02*
X89007500Y-62305000D01*
X89007500Y-49505000D02*
X89007500Y-62305000D01*
X89007500Y-30505000D02*
X89007500Y-45505000D01*
D21*
X89007500Y-74205000D02*
X99707501Y-84905001D01*
D18*
X89407500Y-60305000D02*
X89007500Y-61105000D01*
D21*
X99707501Y-84905001D02*
X100007500Y-85205000D01*
X89007500Y-68505000D02*
X89007500Y-74205000D01*
D18*
X108007500Y-80005000D02*
X111807500Y-83805000D01*
X108237500Y-33035000D02*
X108237500Y-47250736D01*
X108007500Y-32805000D02*
X108237500Y-33035000D01*
D22*
X108107505Y-63104999D02*
X108407504Y-62805000D01*
D18*
X108237500Y-47250736D02*
X108007500Y-47480736D01*
X122607500Y-87005000D02*
X122607500Y-99005000D01*
X108007500Y-70805000D02*
X108007500Y-80005000D01*
D22*
X108007500Y-63105000D02*
X108107505Y-63104999D01*
D18*
X108007500Y-51805000D02*
X108007500Y-66805000D01*
X108007500Y-47480736D02*
X108007500Y-47905000D01*
X119407500Y-83805000D02*
X122607500Y-87005000D01*
X111807500Y-83805000D02*
X119407500Y-83805000D01*
X173982501Y-34307763D02*
X171063762Y-31389024D01*
X173982501Y-45639999D02*
X173982501Y-34307763D01*
X173357500Y-46265000D02*
X173982501Y-45639999D01*
X175232500Y-58415010D02*
X175232500Y-62500000D01*
X172537500Y-58715000D02*
X172537500Y-80201116D01*
X172537500Y-80201116D02*
X167110558Y-85628058D01*
X269907500Y-68905000D02*
X269507500Y-69305000D01*
X269907500Y-49890010D02*
X269892509Y-49905001D01*
X269917499Y-64465001D02*
X269917499Y-54854999D01*
X269892509Y-49905001D02*
X269592510Y-50205000D01*
X269899204Y-64486704D02*
X269899204Y-66198296D01*
X269917499Y-54854999D02*
X269617500Y-54555000D01*
X269907500Y-35505000D02*
X269907500Y-49890010D01*
X269899204Y-66198296D02*
X269547500Y-66550000D01*
X269897500Y-64485000D02*
X269917499Y-64465001D01*
X269897500Y-64485000D02*
X269907500Y-68905000D01*
X269607500Y-35205000D02*
X269907500Y-35505000D01*
X269897500Y-64485000D02*
X269899204Y-64486704D01*
X250507500Y-54205000D02*
X250507500Y-64335000D01*
X250507500Y-64185746D02*
X250421764Y-64100010D01*
X250507500Y-35105000D02*
X250507500Y-50305000D01*
X250421764Y-64100010D02*
X249997500Y-64100010D01*
X250507500Y-64335000D02*
X250507500Y-64185746D01*
X250507500Y-64335000D02*
X250507500Y-69205000D01*
X231607500Y-59795000D02*
X231607500Y-64505000D01*
X231534448Y-58813050D02*
X231234449Y-58513051D01*
X231607500Y-59795000D02*
X231607500Y-58886102D01*
X231507500Y-30305000D02*
X231507500Y-45505000D01*
X231607500Y-49505000D02*
X231607500Y-59795000D01*
X231607500Y-58886102D02*
X231534448Y-58813050D01*
X212107500Y-59240000D02*
X212107500Y-59020000D01*
X212557500Y-74865000D02*
X212557500Y-65985000D01*
X212507500Y-62005000D02*
X212507500Y-62205000D01*
X212507500Y-60295000D02*
X212507500Y-59640000D01*
X212507500Y-47105000D02*
X212507500Y-60295000D01*
X212507500Y-28005000D02*
X212507500Y-43105000D01*
X212507500Y-59640000D02*
X212107500Y-59240000D01*
X212507500Y-60295000D02*
X212507500Y-62005000D01*
X203087500Y-84335000D02*
X212557500Y-74865000D01*
X193507500Y-63715000D02*
X193507500Y-64505000D01*
X193137500Y-62299264D02*
X193137500Y-61875000D01*
X194007500Y-30905000D02*
X194007500Y-45005000D01*
X181287500Y-88895000D02*
X181187500Y-88895000D01*
X193507500Y-63715000D02*
X193137500Y-63345000D01*
X193137500Y-63345000D02*
X193137500Y-62299264D01*
X194007500Y-45005000D02*
X193507500Y-45505000D01*
X193507500Y-49305000D02*
X193507500Y-63715000D01*
X193517500Y-68325000D02*
X193517500Y-76665000D01*
X193507500Y-30405000D02*
X194007500Y-30905000D01*
X193517500Y-76665000D02*
X181287500Y-88895000D01*
X174417500Y-70675000D02*
X174417500Y-79205000D01*
X174417500Y-79205000D02*
X166947500Y-86675000D01*
X174327500Y-63015000D02*
X174297500Y-63015000D01*
X174507500Y-32805000D02*
X174507500Y-47805000D01*
X174607500Y-64475000D02*
X174607500Y-66805000D01*
X166947500Y-86675000D02*
X166887500Y-86675000D01*
X174607500Y-51905000D02*
X174607500Y-64475000D01*
X174607500Y-64475000D02*
X174607500Y-63295000D01*
X174607500Y-63295000D02*
X174327500Y-63015000D01*
X174607500Y-66805000D02*
X174507500Y-66905000D01*
D19*
X142423900Y-37022000D02*
X142423900Y-39562000D01*
X142423900Y-39562000D02*
X144134500Y-41272600D01*
M02*
