M48
; DRILL file {KiCad 7.0.1} date Sun 26 Mar 2023 12:44:11 AM PDT
; FORMAT={-:-/ absolute / inch / decimal}
; #@! TF.CreationDate,2023-03-26T00:44:11-07:00
; #@! TF.GenerationSoftware,Kicad,Pcbnew,7.0.1
; #@! TF.FileFunction,Plated,1,2,PTH
FMAT,2
INCH
; #@! TA.AperFunction,Plated,PTH,ViaDrill
T1C0.0157
; #@! TA.AperFunction,Plated,PTH,ComponentDrill
T2C0.0320
; #@! TA.AperFunction,Plated,PTH,ComponentDrill
T3C0.0512
%
G90
G05
T1
X0.5121Y-1.386
X0.5121Y-1.9766
X0.5121Y-2.1341
X0.5121Y-2.6262
X0.5121Y-2.7246
X1.2483Y-2.1419
X1.2585Y-1.9762
X1.2601Y-1.386
X1.2641Y-2.7246
X1.2912Y-2.5943
X1.9806Y-1.3821
X2.0082Y-1.201
X2.0082Y-1.7915
X2.0082Y-1.949
X2.0082Y-2.5396
X2.0121Y-1.0435
X2.07Y-2.4084
X2.7316Y-2.4136
X2.7316Y-2.6931
X2.7562Y-1.1065
X2.7562Y-1.697
X2.7562Y-1.8545
X2.7562Y-2.4451
X2.7562Y-2.5868
X2.7719Y-2.3506
X3.1302Y-3.3191
X3.5042Y-1.201
X3.5042Y-1.7915
X3.5042Y-1.949
X3.5042Y-2.5396
X3.5042Y-2.697
X3.52Y-2.3742
X3.9373Y-3.3545
X4.2523Y-1.2915
X4.2523Y-1.886
X4.2523Y-2.0396
X4.2523Y-2.6301
X4.2523Y-2.7876
X4.268Y-2.4726
X4.8271Y-3.8978
X4.8664Y-2.1341
X4.9058Y-2.7167
X4.9137Y-2.7876
X4.9801Y-3.4009
X5.1616Y-2.7547
X5.3887Y-2.9594
X5.4216Y-1.4747
X5.4216Y-1.4747
X5.4939Y-2.6047
X6.1887Y-2.6047
X6.3316Y-2.8847
X6.5704Y-3.4124
X6.5792Y-3.3712
X6.5916Y-2.8047
X6.7348Y-1.2358
X6.7928Y-2.3116
X6.8251Y-1.8215
X6.8621Y-2.4809
X6.8668Y-2.7825
X6.8704Y-1.2915
X6.8704Y-1.8821
X6.8704Y-2.6341
X6.8743Y-2.0435
X6.8989Y-2.2998
X6.8989Y-2.4606
X7.1334Y-3.4998
X7.6038Y-2.436
X7.6184Y-1.197
X7.6184Y-1.7915
X7.6184Y-1.9411
X7.6184Y-2.5396
X7.6188Y-2.69
X7.9956Y-3.3203
X8.3507Y-2.3236
X8.3664Y-1.1026
X8.3664Y-1.697
X8.3664Y-1.8545
X8.3664Y-2.449
X8.3684Y-2.5978
X9.1037Y-2.3037
X9.1145Y-1.1931
X9.1145Y-1.7915
X9.1184Y-1.949
X9.1184Y-2.5396
X9.8424Y-2.5236
X9.8625Y-1.3821
X9.8625Y-1.9805
X9.8625Y-2.1341
X9.8625Y-2.7246
X10.6105Y-2.7285
X10.6121Y-2.6201
X10.6139Y-1.9766
X10.6145Y-1.386
X10.6149Y-2.1478
T2
X5.008Y-1.2576
X5.008Y-1.3576
X5.008Y-1.4576
X5.008Y-1.5576
X5.008Y-1.6576
X5.008Y-1.7576
X5.008Y-1.8576
X5.008Y-1.9576
X5.008Y-2.0576
X5.008Y-2.1576
X5.008Y-2.2576
X5.008Y-2.3576
X5.6072Y-1.2576
X5.6072Y-1.3576
X5.6072Y-1.4576
X5.6072Y-1.5576
X5.6072Y-1.6576
X5.6072Y-1.7576
X5.6072Y-1.8576
X5.6072Y-1.9576
X5.6072Y-2.0576
X5.6072Y-2.1576
X5.6072Y-2.2576
X5.6072Y-2.3576
X6.0779Y-1.2564
X6.0779Y-1.3564
X6.0779Y-1.4564
X6.0779Y-1.5564
X6.0779Y-1.6564
X6.0779Y-1.7564
X6.0779Y-1.8564
X6.0779Y-1.9564
X6.0779Y-2.0564
X6.0779Y-2.1564
X6.0779Y-2.2564
X6.0779Y-2.3564
X6.6771Y-1.2564
X6.6771Y-1.3564
X6.6771Y-1.4564
X6.6771Y-1.5564
X6.6771Y-1.6564
X6.6771Y-1.7564
X6.6771Y-1.8564
X6.6771Y-1.9564
X6.6771Y-2.0564
X6.6771Y-2.1564
X6.6771Y-2.2564
X6.6771Y-2.3564
T3
X5.6073Y-2.4914
X5.6073Y-2.7473
X6.075Y-2.491
X6.075Y-2.7469
T0
M30
